ISO-10303-21;
HEADER;
FILE_DESCRIPTION (( 'STEP AP214' ),
    '1' );
FILE_NAME ('3d printer roller.STEP',
    '2022-03-14T18:26:09',
    ( '' ),
    ( '' ),
    'SwSTEP 2.0',
    'SolidWorks 2021',
    '' );
FILE_SCHEMA (( 'AUTOMOTIVE_DESIGN' ));
ENDSEC;

DATA;
#1 = CARTESIAN_POINT ( 'NONE',  ( 9.799999999999997158, 0.000000000000000000, 0.000000000000000000 ) ) ;
#2 = SHAPE_DEFINITION_REPRESENTATION ( #181, #15 ) ;
#3 = AXIS2_PLACEMENT_3D ( 'NONE', #806, #600, #82 ) ;
#4 = DIRECTION ( 'NONE',  ( 0.000000000000000000, 1.000000000000000000, -1.224646799147353207E-16 ) ) ;
#5 = EDGE_CURVE ( 'NONE', #826, #529, #1049, .T. ) ;
#6 = CARTESIAN_POINT ( 'NONE',  ( 2.200000000000000622, 0.000000000000000000, 0.000000000000000000 ) ) ;
#7 = VERTEX_POINT ( 'NONE', #74 ) ;
#8 = CARTESIAN_POINT ( 'NONE',  ( 0.000000000000000000, 0.000000000000000000, 5.399999999999999467 ) ) ;
#9 =( LENGTH_UNIT ( ) NAMED_UNIT ( * ) SI_UNIT ( .MILLI., .METRE. ) );
#10 = DIRECTION ( 'NONE',  ( 0.000000000000000000, 0.000000000000000000, -1.000000000000000000 ) ) ;
#11 = CARTESIAN_POINT ( 'NONE',  ( 2.199999999999999734, 0.000000000000000000, 0.000000000000000000 ) ) ;
#12 = VERTEX_POINT ( 'NONE', #1196 ) ;
#13 = AXIS2_PLACEMENT_3D ( 'NONE', #645, #251, #331 ) ;
#14 = DIRECTION ( 'NONE',  ( -0.000000000000000000, -0.000000000000000000, -1.000000000000000000 ) ) ;
#15 = SHAPE_REPRESENTATION ( 'roller', ( #90 ), #192 ) ;
#16 = DIRECTION ( 'NONE',  ( 1.000000000000000000, 0.000000000000000000, 0.000000000000000000 ) ) ;
#17 = CYLINDRICAL_SURFACE ( 'NONE', #658, 4.149999999999999467 ) ;
#18 = VECTOR ( 'NONE', #666, 1000.000000000000000 ) ;
#19 = EDGE_LOOP ( 'NONE', ( #727, #443, #261, #1244 ) ) ;
#20 = AXIS2_PLACEMENT_3D ( 'NONE', #531, #523, #422 ) ;
#21 = AXIS2_PLACEMENT_3D ( 'NONE', #744, #240, #565 ) ;
#22 = ADVANCED_FACE ( 'NONE', ( #1086, #175 ), #1003, .T. ) ;
#23 = CARTESIAN_POINT ( 'NONE',  ( 0.000000000000000000, 0.000000000000000000, 0.000000000000000000 ) ) ;
#24 = CARTESIAN_POINT ( 'NONE',  ( 0.000000000000000000, 0.000000000000000000, 0.000000000000000000 ) ) ;
#25 = LINE ( 'NONE', #133, #1107 ) ;
#26 = AXIS2_PLACEMENT_3D ( 'NONE', #1100, #1005, #883 ) ;
#27 = ORIENTED_EDGE ( 'NONE', *, *, #494, .T. ) ;
#28 = EDGE_CURVE ( 'NONE', #1048, #1130, #1212, .T. ) ;
#29 = AXIS2_PLACEMENT_3D ( 'NONE', #221, #1239, #1245 ) ;
#30 = AXIS2_PLACEMENT_3D ( 'NONE', #111, #817, #1215 ) ;
#31 = ADVANCED_FACE ( 'NONE', ( #791 ), #1078, .F. ) ;
#32 = PRODUCT_CONTEXT ( 'NONE', #398, 'mechanical' ) ;
#33 = DIRECTION ( 'NONE',  ( 1.000000000000000000, 0.000000000000000000, 0.000000000000000000 ) ) ;
#34 = DIRECTION ( 'NONE',  ( 1.000000000000000000, 0.000000000000000000, 0.000000000000000000 ) ) ;
#35 = ORIENTED_EDGE ( 'NONE', *, *, #1192, .T. ) ;
#36 = CIRCLE ( 'NONE', #202, 8.000000000000000000 ) ;
#37 = CARTESIAN_POINT ( 'NONE',  ( -2.499999999999998668, 0.000000000000000000, -4.149999999999998579 ) ) ;
#38 = DIRECTION ( 'NONE',  ( -1.000000000000000000, 0.000000000000000000, 0.000000000000000000 ) ) ;
#39 = CARTESIAN_POINT ( 'NONE',  ( -8.000000000000000000, 9.797174393178825657E-16, 10.40000000000000036 ) ) ;
#40 = ORIENTED_EDGE ( 'NONE', *, *, #119, .T. ) ;
#41 = CIRCLE ( 'NONE', #104, 8.000000000000000000 ) ;
#42 = AXIS2_PLACEMENT_3D ( 'NONE', #624, #208, #735 ) ;
#43 = ADVANCED_FACE ( 'NONE', ( #94 ), #599, .T. ) ;
#44 = FACE_OUTER_BOUND ( 'NONE', #1228, .T. ) ;
#45 = CYLINDRICAL_SURFACE ( 'NONE', #400, 6.350000000000004974 ) ;
#46 = CARTESIAN_POINT ( 'NONE',  ( 2.499999999999998668, 0.000000000000000000, -4.149999999999998579 ) ) ;
#47 = EDGE_CURVE ( 'NONE', #1229, #1294, #818, .T. ) ;
#48 = ORIENTED_EDGE ( 'NONE', *, *, #122, .F. ) ;
#49 = AXIS2_PLACEMENT_3D ( 'NONE', #1281, #287, #1204 ) ;
#50 = CARTESIAN_POINT ( 'NONE',  ( -9.799999999999997158, 1.334865011070615245E-15, 0.000000000000000000 ) ) ;
#51 = DIRECTION ( 'NONE',  ( 0.000000000000000000, 0.000000000000000000, -1.000000000000000000 ) ) ;
#52 = DIRECTION ( 'NONE',  ( 1.000000000000000000, 0.000000000000000000, 0.000000000000000000 ) ) ;
#53 = EDGE_LOOP ( 'NONE', ( #375, #1125 ) ) ;
#54 = VECTOR ( 'NONE', #561, 1000.000000000000000 ) ;
#55 = LINE ( 'NONE', #160, #227 ) ;
#56 = DIRECTION ( 'NONE',  ( 1.000000000000000000, 0.000000000000000000, 0.000000000000000000 ) ) ;
#57 = VERTEX_POINT ( 'NONE', #918 ) ;
#58 = EDGE_LOOP ( 'NONE', ( #393, #112 ) ) ;
#59 = EDGE_CURVE ( 'NONE', #969, #1175, #25, .T. ) ;
#60 = AXIS2_PLACEMENT_3D ( 'NONE', #901, #499, #504 ) ;
#61 = FACE_OUTER_BOUND ( 'NONE', #1066, .T. ) ;
#62 = CARTESIAN_POINT ( 'NONE',  ( 2.200000000000000622, 0.000000000000000000, 0.000000000000000000 ) ) ;
#63 = VECTOR ( 'NONE', #70, 1000.000000000000000 ) ;
#64 = CARTESIAN_POINT ( 'NONE',  ( -2.499999999999998668, 0.000000000000000000, 0.000000000000000000 ) ) ;
#65 = ORIENTED_EDGE ( 'NONE', *, *, #555, .T. ) ;
#66 = AXIS2_PLACEMENT_3D ( 'NONE', #1207, #299, #1012 ) ;
#67 = ORIENTED_EDGE ( 'NONE', *, *, #1199, .T. ) ;
#68 = AXIS2_PLACEMENT_3D ( 'NONE', #984, #377, #277 ) ;
#69 = DIRECTION ( 'NONE',  ( -0.000000000000000000, -0.000000000000000000, 1.000000000000000000 ) ) ;
#70 = DIRECTION ( 'NONE',  ( 1.000000000000000000, 0.000000000000000000, 0.000000000000000000 ) ) ;
#71 = SURFACE_STYLE_FILL_AREA ( #869 ) ;
#72 = ORIENTED_EDGE ( 'NONE', *, *, #555, .F. ) ;
#73 = CLOSED_SHELL ( 'NONE', ( #1237, #613, #1080, #874, #871, #1273, #652, #315, #1154, #213, #587, #1299, #530, #22, #180, #143 ) ) ;
#74 = CARTESIAN_POINT ( 'NONE',  ( 2.499999999999998668, 5.082284216461513184E-16, 4.149999999999998579 ) ) ;
#75 = ORIENTED_EDGE ( 'NONE', *, *, #370, .T. ) ;
#76 = CARTESIAN_POINT ( 'NONE',  ( -2.500000000000000000, 0.000000000000000000, 5.000000000000000000 ) ) ;
#77 = DIRECTION ( 'NONE',  ( 1.000000000000000000, 0.000000000000000000, 0.000000000000000000 ) ) ;
#78 = CIRCLE ( 'NONE', #776, 9.799999999999995381 ) ;
#79 = EDGE_CURVE ( 'NONE', #1098, #1184, #520, .T. ) ;
#80 = EDGE_LOOP ( 'NONE', ( #863, #1183, #174, #596 ) ) ;
#81 = EDGE_LOOP ( 'NONE', ( #1131, #603 ) ) ;
#82 = DIRECTION ( 'NONE',  ( 0.000000000000000000, 0.000000000000000000, -1.000000000000000000 ) ) ;
#83 = AXIS2_PLACEMENT_3D ( 'NONE', #297, #606, #101 ) ;
#84 = EDGE_CURVE ( 'NONE', #466, #359, #196, .T. ) ;
#85 = CARTESIAN_POINT ( 'NONE',  ( 1.229837387624880707, 0.000000000000000000, 6.350000000000004974 ) ) ;
#86 = CARTESIAN_POINT ( 'NONE',  ( 0.000000000000000000, 0.000000000000000000, 0.000000000000000000 ) ) ;
#87 = AXIS2_PLACEMENT_3D ( 'NONE', #608, #226, #300 ) ;
#88 = EDGE_CURVE ( 'NONE', #106, #1079, #941, .T. ) ;
#89 = ORIENTED_EDGE ( 'NONE', *, *, #964, .F. ) ;
#90 = AXIS2_PLACEMENT_3D ( 'NONE', #1088, #900, #1296 ) ;
#91 = CARTESIAN_POINT ( 'NONE',  ( -2.499999999999998668, 7.776507174585699066E-16, 6.350000000000004974 ) ) ;
#92 = DIRECTION ( 'NONE',  ( 0.000000000000000000, 0.000000000000000000, -1.000000000000000000 ) ) ;
#93 = CARTESIAN_POINT ( 'NONE',  ( -2.200000000000000622, 3.061616997868382648E-16, 2.499999999999999556 ) ) ;
#94 = FACE_OUTER_BOUND ( 'NONE', #610, .T. ) ;
#95 = CARTESIAN_POINT ( 'NONE',  ( -20.63749999999999929, 0.000000000000000000, -4.149999999999999467 ) ) ;
#96 = FACE_OUTER_BOUND ( 'NONE', #573, .T. ) ;
#97 = CYLINDRICAL_SURFACE ( 'NONE', #1248, 4.149999999999999467 ) ;
#98 = ORIENTED_EDGE ( 'NONE', *, *, #332, .F. ) ;
#99 = SHAPE_REPRESENTATION ( '3d printer roller', ( #1263, #127, #290, #20 ), #868 ) ;
#100 = EDGE_CURVE ( 'NONE', #1106, #996, #535, .T. ) ;
#101 = DIRECTION ( 'NONE',  ( 0.000000000000000000, 0.000000000000000000, -1.000000000000000000 ) ) ;
#102 = PRODUCT_DEFINITION_CONTEXT ( 'detailed design', #675, 'design' ) ;
#103 = CARTESIAN_POINT ( 'NONE',  ( -20.63749999999999929, 0.000000000000000000, 0.000000000000000000 ) ) ;
#104 = AXIS2_PLACEMENT_3D ( 'NONE', #8, #412, #1023 ) ;
#105 = CARTESIAN_POINT ( 'NONE',  ( 0.000000000000000000, 0.000000000000000000, 5.399999999999999467 ) ) ;
#106 = VERTEX_POINT ( 'NONE', #637 ) ;
#107 = DIRECTION ( 'NONE',  ( 1.000000000000000000, 0.000000000000000000, 0.000000000000000000 ) ) ;
#108 = AXIS2_PLACEMENT_3D ( 'NONE', #607, #908, #1309 ) ;
#109 = ITEM_DEFINED_TRANSFORMATION ( 'NONE', 'NONE', #290,  #90 ) ;
#110 = CARTESIAN_POINT ( 'NONE',  ( -8.000000000000000000, 0.000000000000000000, 0.000000000000000000 ) ) ;
#111 = CARTESIAN_POINT ( 'NONE',  ( -2.199999999999999734, 9.429780353434626918E-16, 7.700000000000005507 ) ) ;
#112 = ORIENTED_EDGE ( 'NONE', *, *, #1192, .F. ) ;
#113 = FILL_AREA_STYLE ('',( #1113 ) ) ;
#114 = CYLINDRICAL_SURFACE ( 'NONE', #247, 6.350000000000004974 ) ;
#115 = UNCERTAINTY_MEASURE_WITH_UNIT (LENGTH_MEASURE( 1.000000000000000082E-05 ), #171, 'distance_accuracy_value', 'NONE');
#116 = AXIS2_PLACEMENT_3D ( 'NONE', #1174, #465, #879 ) ;
#117 = CARTESIAN_POINT ( 'NONE',  ( 0.000000000000000000, 0.000000000000000000, 5.000000000000000000 ) ) ;
#118 = FACE_OUTER_BOUND ( 'NONE', #521, .T. ) ;
#119 = EDGE_CURVE ( 'NONE', #359, #367, #638, .T. ) ;
#120 = ORIENTED_EDGE ( 'NONE', *, *, #489, .F. ) ;
#121 = APPLICATION_PROTOCOL_DEFINITION ( 'draft international standard', 'automotive_design', 1998, #604 ) ;
#122 = EDGE_CURVE ( 'NONE', #684, #938, #484, .T. ) ;
#123 = DIRECTION ( 'NONE',  ( -0.000000000000000000, -0.000000000000000000, -1.000000000000000000 ) ) ;
#124 = CARTESIAN_POINT ( 'NONE',  ( 0.000000000000000000, 0.000000000000000000, 5.399999999999999467 ) ) ;
#125 = AXIS2_PLACEMENT_3D ( 'NONE', #1109, #1102, #492 ) ;
#126 = ORIENTED_EDGE ( 'NONE', *, *, #1022, .T. ) ;
#127 = AXIS2_PLACEMENT_3D ( 'NONE', #718, #731, #505 ) ;
#128 = ADVANCED_FACE ( 'NONE', ( #527 ), #17, .T. ) ;
#129 = CIRCLE ( 'NONE', #935, 1.650000000000000355 ) ;
#130 = ORIENTED_EDGE ( 'NONE', *, *, #510, .F. ) ;
#131 = AXIS2_PLACEMENT_3D ( 'NONE', #702, #1103, #493 ) ;
#132 = DIRECTION ( 'NONE',  ( 0.000000000000000000, -1.000000000000000000, 0.000000000000000000 ) ) ;
#133 = CARTESIAN_POINT ( 'NONE',  ( -9.799999999999995381, 0.000000000000000000, 10.40000000000000036 ) ) ;
#134 = APPLICATION_CONTEXT ( 'automotive_design' ) ;
#135 = EDGE_LOOP ( 'NONE', ( #476, #1040, #812, #759 ) ) ;
#136 = CIRCLE ( 'NONE', #1266, 8.000000000000007105 ) ;
#137 = DIRECTION ( 'NONE',  ( -1.000000000000000000, 0.000000000000000000, 0.000000000000000000 ) ) ;
#138 = AXIS2_PLACEMENT_3D ( 'NONE', #1300, #197, #798 ) ;
#139 = CARTESIAN_POINT ( 'NONE',  ( 1.229837387624880707, 0.000000000000000000, 0.000000000000000000 ) ) ;
#140 = DIRECTION ( 'NONE',  ( -1.000000000000000000, 0.000000000000000000, 0.000000000000000000 ) ) ;
#141 = ORIENTED_EDGE ( 'NONE', *, *, #549, .T. ) ;
#142 = EDGE_CURVE ( 'NONE', #684, #12, #923, .T. ) ;
#143 = ADVANCED_FACE ( 'NONE', ( #319, #424 ), #937, .T. ) ;
#144 = DIRECTION ( 'NONE',  ( 1.000000000000000000, 0.000000000000000000, 0.000000000000000000 ) ) ;
#145 = CARTESIAN_POINT ( 'NONE',  ( 0.000000000000000000, 6.429395695523604153E-16, -5.250000000000000000 ) ) ;
#146 = LINE ( 'NONE', #1241, #717 ) ;
#147 = ORIENTED_EDGE ( 'NONE', *, *, #692, .T. ) ;
#148 = CIRCLE ( 'NONE', #13, 8.000000000000000000 ) ;
#149 = CARTESIAN_POINT ( 'NONE',  ( 2.200000000000000178, 0.000000000000000000, 0.000000000000000000 ) ) ;
#150 = DIRECTION ( 'NONE',  ( 0.000000000000000000, -1.000000000000000000, 0.000000000000000000 ) ) ;
#151 = DIRECTION ( 'NONE',  ( -0.7071067811865486830, 8.659560562354948882E-17, 0.7071067811865464625 ) ) ;
#152 = ORIENTED_EDGE ( 'NONE', *, *, #88, .F. ) ;
#153 = CIRCLE ( 'NONE', #467, 6.350000000000004974 ) ;
#154 = ADVANCED_BREP_SHAPE_REPRESENTATION ( '', ( #760, #90 ), #1124 ) ;
#155 = DIRECTION ( 'NONE',  ( 1.000000000000000000, 0.000000000000000000, 0.000000000000000000 ) ) ;
#156 = ORIENTED_EDGE ( 'NONE', *, *, #456, .T. ) ;
#157 = EDGE_CURVE ( 'NONE', #576, #231, #378, .T. ) ;
#158 = TOROIDAL_SURFACE ( 'NONE', #1068, 7.700000000000005507, 0.3000000000000007661 ) ;
#159 = ORIENTED_EDGE ( 'NONE', *, *, #28, .F. ) ;
#160 = CARTESIAN_POINT ( 'NONE',  ( -20.63749999999999929, 0.000000000000000000, -4.149999999999999467 ) ) ;
#161 =( NAMED_UNIT ( * ) PLANE_ANGLE_UNIT ( ) SI_UNIT ( $, .RADIAN. ) );
#162 = ADVANCED_FACE ( 'NONE', ( #1222 ), #998, .T. ) ;
#163 = ORIENTED_EDGE ( 'NONE', *, *, #1119, .F. ) ;
#164 = EDGE_CURVE ( 'NONE', #469, #383, #311, .T. ) ;
#165 = ORIENTED_EDGE ( 'NONE', *, *, #892, .T. ) ;
#166 = CARTESIAN_POINT ( 'NONE',  ( 0.000000000000000000, 0.000000000000000000, 10.40000000000000036 ) ) ;
#167 = ORIENTED_EDGE ( 'NONE', *, *, #1149, .T. ) ;
#168 = AXIS2_PLACEMENT_3D ( 'NONE', #329, #318, #436 ) ;
#169 = VERTEX_POINT ( 'NONE', #720 ) ;
#170 = EDGE_LOOP ( 'NONE', ( #833, #980, #344, #567 ) ) ;
#171 =( LENGTH_UNIT ( ) NAMED_UNIT ( * ) SI_UNIT ( .MILLI., .METRE. ) );
#172 = CARTESIAN_POINT ( 'NONE',  ( -20.63749999999999574, 0.000000000000000000, 0.000000000000000000 ) ) ;
#173 = DIRECTION ( 'NONE',  ( 0.000000000000000000, 0.000000000000000000, -1.000000000000000000 ) ) ;
#174 = ORIENTED_EDGE ( 'NONE', *, *, #374, .F. ) ;
#175 = FACE_OUTER_BOUND ( 'NONE', #888, .T. ) ;
#176 = ORIENTED_EDGE ( 'NONE', *, *, #142, .F. ) ;
#177 = ADVANCED_FACE ( 'NONE', ( #118 ), #956, .T. ) ;
#178 = FACE_OUTER_BOUND ( 'NONE', #170, .T. ) ;
#179 = CARTESIAN_POINT ( 'NONE',  ( 2.500000000000000444, 2.799999999999999822, 0.000000000000000000 ) ) ;
#180 = ADVANCED_FACE ( 'NONE', ( #201 ), #1013, .F. ) ;
#181 = PRODUCT_DEFINITION_SHAPE ( 'NONE', 'NONE',  #734 ) ;
#182 = CARTESIAN_POINT ( 'NONE',  ( 12.00000000000000533, 0.000000000000000000, 2.200000000000000622 ) ) ;
#183 = ORIENTED_EDGE ( 'NONE', *, *, #1149, .F. ) ;
#184 = ORIENTED_EDGE ( 'NONE', *, *, #790, .F. ) ;
#185 = SURFACE_SIDE_STYLE ('',( #1093 ) ) ;
#186 = AXIS2_PLACEMENT_3D ( 'NONE', #749, #463, #966 ) ;
#187 = CARTESIAN_POINT ( 'NONE',  ( 8.000000000000000000, 0.000000000000000000, 5.399999999999999467 ) ) ;
#188 =( GEOMETRIC_REPRESENTATION_CONTEXT ( 3 ) GLOBAL_UNCERTAINTY_ASSIGNED_CONTEXT ( ( #1017 ) ) GLOBAL_UNIT_ASSIGNED_CONTEXT ( ( #738, #214, #1232 ) ) REPRESENTATION_CONTEXT ( 'NONE', 'WORKASPACE' ) );
#189 = DIRECTION ( 'NONE',  ( -1.000000000000000000, -0.000000000000000000, -0.000000000000000000 ) ) ;
#190 = CIRCLE ( 'NONE', #699, 7.700000000000005507 ) ;
#191 = ORIENTED_EDGE ( 'NONE', *, *, #293, .T. ) ;
#192 =( GEOMETRIC_REPRESENTATION_CONTEXT ( 3 ) GLOBAL_UNCERTAINTY_ASSIGNED_CONTEXT ( ( #115 ) ) GLOBAL_UNIT_ASSIGNED_CONTEXT ( ( #171, #786, #1187 ) ) REPRESENTATION_CONTEXT ( 'NONE', 'WORKASPACE' ) );
#193 = LINE ( 'NONE', #1000, #677 ) ;
#194 = CIRCLE ( 'NONE', #940, 9.799999999999997158 ) ;
#195 = CARTESIAN_POINT ( 'NONE',  ( -2.200000000000000622, 0.000000000000000000, -8.000000000000007105 ) ) ;
#196 = CIRCLE ( 'NONE', #1278, 0.3000000000000003775 ) ;
#197 = DIRECTION ( 'NONE',  ( 1.000000000000000000, 0.000000000000000000, 0.000000000000000000 ) ) ;
#198 = ADVANCED_FACE ( 'NONE', ( #540 ), #1152, .T. ) ;
#199 = FACE_OUTER_BOUND ( 'NONE', #842, .T. ) ;
#200 = DIRECTION ( 'NONE',  ( -0.000000000000000000, -0.000000000000000000, 1.000000000000000000 ) ) ;
#201 = FACE_OUTER_BOUND ( 'NONE', #19, .T. ) ;
#202 = AXIS2_PLACEMENT_3D ( 'NONE', #245, #51, #1056 ) ;
#203 = ORIENTED_EDGE ( 'NONE', *, *, #595, .T. ) ;
#204 = CARTESIAN_POINT ( 'NONE',  ( -20.63749999999999574, 7.776507174585699066E-16, 6.350000000000004974 ) ) ;
#205 = DIRECTION ( 'NONE',  ( 0.000000000000000000, 0.000000000000000000, 1.000000000000000000 ) ) ;
#206 = CARTESIAN_POINT ( 'NONE',  ( -8.000000000000000000, 9.797174393178825657E-16, 5.399999999999999467 ) ) ;
#207 = VECTOR ( 'NONE', #14, 1000.000000000000000 ) ;
#208 = DIRECTION ( 'NONE',  ( 0.000000000000000000, 0.000000000000000000, 1.000000000000000000 ) ) ;
#209 = AXIS2_PLACEMENT_3D ( 'NONE', #650, #656, #437 ) ;
#210 = ORIENTED_EDGE ( 'NONE', *, *, #355, .T. ) ;
#211 =( NAMED_UNIT ( * ) PLANE_ANGLE_UNIT ( ) SI_UNIT ( $, .RADIAN. ) );
#212 = CARTESIAN_POINT ( 'NONE',  ( 8.000000000000000000, 9.797174393178825657E-16, 5.000000000000000000 ) ) ;
#213 = ADVANCED_FACE ( 'NONE', ( #745 ), #241, .T. ) ;
#214 =( NAMED_UNIT ( * ) PLANE_ANGLE_UNIT ( ) SI_UNIT ( $, .RADIAN. ) );
#215 = LINE ( 'NONE', #623, #255 ) ;
#216 = DIRECTION ( 'NONE',  ( 0.000000000000000000, 0.000000000000000000, -1.000000000000000000 ) ) ;
#217 = EDGE_LOOP ( 'NONE', ( #678, #501, #562, #872 ) ) ;
#218 = EDGE_CURVE ( 'NONE', #996, #1106, #548, .T. ) ;
#219 = APPLICATION_PROTOCOL_DEFINITION ( 'draft international standard', 'automotive_design', 1998, #675 ) ;
#220 = AXIS2_PLACEMENT_3D ( 'NONE', #86, #189, #486 ) ;
#221 = CARTESIAN_POINT ( 'NONE',  ( -20.63749999999999929, 0.000000000000000000, 0.000000000000000000 ) ) ;
#222 = DIRECTION ( 'NONE',  ( 1.000000000000000000, 0.000000000000000000, 0.000000000000000000 ) ) ;
#223 = ORIENTED_EDGE ( 'NONE', *, *, #452, .F. ) ;
#224 = ORIENTED_EDGE ( 'NONE', *, *, #924, .T. ) ;
#225 = PLANE ( 'NONE',  #765 ) ;
#226 = DIRECTION ( 'NONE',  ( 1.000000000000000000, 0.000000000000000000, 0.000000000000000000 ) ) ;
#227 = VECTOR ( 'NONE', #859, 1000.000000000000000 ) ;
#228 = EDGE_LOOP ( 'NONE', ( #679, #882 ) ) ;
#229 = AXIS2_PLACEMENT_3D ( 'NONE', #62, #960, #559 ) ;
#230 = APPLICATION_PROTOCOL_DEFINITION ( 'draft international standard', 'automotive_design', 1998, #511 ) ;
#231 = VERTEX_POINT ( 'NONE', #554 ) ;
#232 = AXIS2_PLACEMENT_3D ( 'NONE', #500, #200, #1001 ) ;
#233 = DIRECTION ( 'NONE',  ( -0.000000000000000000, -0.000000000000000000, -1.000000000000000000 ) ) ;
#234 = DIRECTION ( 'NONE',  ( 1.000000000000000000, 0.000000000000000000, 0.000000000000000000 ) ) ;
#235 = AXIS2_PLACEMENT_3D ( 'NONE', #686, #69, #1302 ) ;
#236 = ORIENTED_EDGE ( 'NONE', *, *, #1008, .T. ) ;
#237 = EDGE_CURVE ( 'NONE', #1091, #106, #146, .T. ) ;
#238 = LINE ( 'NONE', #953, #18 ) ;
#239 = VERTEX_POINT ( 'NONE', #39 ) ;
#240 = DIRECTION ( 'NONE',  ( -1.000000000000000000, 0.000000000000000000, -0.000000000000000000 ) ) ;
#241 = CYLINDRICAL_SURFACE ( 'NONE', #785, 12.00000000000000533 ) ;
#242 = ORIENTED_EDGE ( 'NONE', *, *, #88, .T. ) ;
#243 = STYLED_ITEM ( 'NONE', ( #566 ), #330 ) ;
#244 = FACE_BOUND ( 'NONE', #228, .T. ) ;
#245 = CARTESIAN_POINT ( 'NONE',  ( 0.000000000000000000, 0.000000000000000000, 5.000000000000000000 ) ) ;
#246 = EDGE_LOOP ( 'NONE', ( #165, #1223, #1242, #963 ) ) ;
#247 = AXIS2_PLACEMENT_3D ( 'NONE', #921, #916, #1126 ) ;
#248 = CARTESIAN_POINT ( 'NONE',  ( -12.00000000000000533, 0.000000000000000000, 8.199999999999985079 ) ) ;
#249 = CARTESIAN_POINT ( 'NONE',  ( -8.000000000000000000, 0.000000000000000000, 5.000000000000000000 ) ) ;
#250 = ADVANCED_FACE ( 'NONE', ( #1161 ), #844, .T. ) ;
#251 = DIRECTION ( 'NONE',  ( -0.000000000000000000, -0.000000000000000000, -1.000000000000000000 ) ) ;
#252 = CARTESIAN_POINT ( 'NONE',  ( 0.000000000000000000, 0.000000000000000000, 0.000000000000000000 ) ) ;
#253 = EDGE_LOOP ( 'NONE', ( #988, #651, #35, #89 ) ) ;
#254 = COLOUR_RGB ( '',0.2980392156862745057, 0.2980392156862745057, 0.2980392156862745057 ) ;
#255 = VECTOR ( 'NONE', #1115, 1000.000000000000000 ) ;
#256 = EDGE_CURVE ( 'NONE', #239, #57, #148, .T. ) ;
#257 = DIRECTION ( 'NONE',  ( -1.000000000000000000, 0.000000000000000000, 0.000000000000000000 ) ) ;
#258 = CARTESIAN_POINT ( 'NONE',  ( 1.229837387624880707, 7.776507174585699066E-16, -6.350000000000004974 ) ) ;
#259 = EDGE_CURVE ( 'NONE', #1098, #969, #78, .T. ) ;
#260 = CARTESIAN_POINT ( 'NONE',  ( -2.499999999999998668, 0.000000000000000000, 0.000000000000000000 ) ) ;
#261 = ORIENTED_EDGE ( 'NONE', *, *, #929, .T. ) ;
#262 = EDGE_LOOP ( 'NONE', ( #736, #951, #780, #1067 ) ) ;
#263 = PRODUCT ( 'instrument ball bearing_68_am_AFBMA 12.1.4.1 - 0050-16 - 8,SI,NC,8_68', 'instrument ball bearing_68_am_AFBMA 12.1.4.1 - 0050-16 - 8,SI,NC,8_68', '', ( #434 ) ) ;
#264 = DIRECTION ( 'NONE',  ( 1.000000000000000000, 0.000000000000000000, 0.000000000000000000 ) ) ;
#265 = FACE_OUTER_BOUND ( 'NONE', #1209, .T. ) ;
#266 = DIRECTION ( 'NONE',  ( 0.000000000000000000, 0.000000000000000000, -1.000000000000000000 ) ) ;
#267 = ORIENTED_EDGE ( 'NONE', *, *, #1022, .F. ) ;
#268 = DIRECTION ( 'NONE',  ( 0.000000000000000000, 0.000000000000000000, -1.000000000000000000 ) ) ;
#269 = ORIENTED_EDGE ( 'NONE', *, *, #413, .T. ) ;
#270 = AXIS2_PLACEMENT_3D ( 'NONE', #959, #755, #257 ) ;
#271 = CARTESIAN_POINT ( 'NONE',  ( -9.799999999999995381, 0.000000000000000000, 10.40000000000000036 ) ) ;
#272 = EDGE_LOOP ( 'NONE', ( #159, #487, #156, #72 ) ) ;
#273 = EDGE_CURVE ( 'NONE', #1184, #1175, #306, .T. ) ;
#274 = ORIENTED_EDGE ( 'NONE', *, *, #986, .F. ) ;
#275 = ORIENTED_EDGE ( 'NONE', *, *, #1256, .F. ) ;
#276 = EDGE_CURVE ( 'NONE', #373, #536, #754, .T. ) ;
#277 = DIRECTION ( 'NONE',  ( 0.000000000000000000, 0.000000000000000000, -1.000000000000000000 ) ) ;
#278 = CARTESIAN_POINT ( 'NONE',  ( -20.63749999999999929, 0.000000000000000000, -2.499999999999999112 ) ) ;
#279 = FACE_OUTER_BOUND ( 'NONE', #982, .T. ) ;
#280 = CARTESIAN_POINT ( 'NONE',  ( -20.63749999999999574, 0.000000000000000000, 0.000000000000000000 ) ) ;
#281 = VERTEX_POINT ( 'NONE', #46 ) ;
#282 = CYLINDRICAL_SURFACE ( 'NONE', #1270, 2.500000000000000000 ) ;
#283 = DIRECTION ( 'NONE',  ( 0.000000000000000000, 0.000000000000000000, -1.000000000000000000 ) ) ;
#284 = UNCERTAINTY_MEASURE_WITH_UNIT (LENGTH_MEASURE( 1.000000000000000082E-05 ), #9, 'distance_accuracy_value', 'NONE');
#285 = FACE_OUTER_BOUND ( 'NONE', #682, .T. ) ;
#286 = DIRECTION ( 'NONE',  ( 1.000000000000000000, 0.000000000000000000, 0.000000000000000000 ) ) ;
#287 = DIRECTION ( 'NONE',  ( 0.000000000000000000, 0.000000000000000000, -1.000000000000000000 ) ) ;
#288 = AXIS2_PLACEMENT_3D ( 'NONE', #1016, #716, #723 ) ;
#289 = CARTESIAN_POINT ( 'NONE',  ( -2.499999999999998668, 0.000000000000000000, -6.350000000000004974 ) ) ;
#290 = AXIS2_PLACEMENT_3D ( 'NONE', #427, #627, #1024 ) ;
#291 = FACE_OUTER_BOUND ( 'NONE', #1191, .T. ) ;
#292 = AXIS2_PLACEMENT_3D ( 'NONE', #1089, #1297, #283 ) ;
#293 = EDGE_CURVE ( 'NONE', #1072, #741, #36, .T. ) ;
#294 = DIRECTION ( 'NONE',  ( 0.000000000000000000, 1.224646799147352714E-16, 1.000000000000000000 ) ) ;
#295 = AXIS2_PLACEMENT_3D ( 'NONE', #533, #1233, #1046 ) ;
#296 = AXIS2_PLACEMENT_3D ( 'NONE', #363, #558, #771 ) ;
#297 = CARTESIAN_POINT ( 'NONE',  ( 2.200000000000000178, 0.000000000000000000, 0.000000000000000000 ) ) ;
#298 = AXIS2_PLACEMENT_3D ( 'NONE', #644, #16, #936 ) ;
#299 = DIRECTION ( 'NONE',  ( 1.000000000000000000, 0.000000000000000000, 0.000000000000000000 ) ) ;
#300 = DIRECTION ( 'NONE',  ( 0.000000000000000000, 0.000000000000000000, -1.000000000000000000 ) ) ;
#301 = EDGE_LOOP ( 'NONE', ( #176, #670, #426, #67 ) ) ;
#302 = AXIS2_PLACEMENT_3D ( 'NONE', #11, #1208, #1136 ) ;
#303 = CARTESIAN_POINT ( 'NONE',  ( 2.200000000000000622, 9.797174393178835518E-16, 8.000000000000007105 ) ) ;
#304 = APPLICATION_PROTOCOL_DEFINITION ( 'draft international standard', 'automotive_design', 1998, #580 ) ;
#305 = CARTESIAN_POINT ( 'NONE',  ( 0.000000000000000000, 0.000000000000000000, 2.200000000000000622 ) ) ;
#306 = CIRCLE ( 'NONE', #822, 12.00000000000000533 ) ;
#307 = ORIENTED_EDGE ( 'NONE', *, *, #100, .T. ) ;
#308 = EDGE_CURVE ( 'NONE', #1229, #373, #889, .T. ) ;
#309 = LINE ( 'NONE', #204, #994 ) ;
#310 = DIRECTION ( 'NONE',  ( 1.000000000000000000, 0.000000000000000000, 0.000000000000000000 ) ) ;
#311 = LINE ( 'NONE', #707, #899 ) ;
#312 = AXIS2_PLACEMENT_3D ( 'NONE', #832, #1226, #1110 ) ;
#313 = EDGE_CURVE ( 'NONE', #741, #1072, #583, .T. ) ;
#314 = ORIENTED_EDGE ( 'NONE', *, *, #218, .T. ) ;
#315 = ADVANCED_FACE ( 'NONE', ( #851, #856 ), #343, .T. ) ;
#316 = DIRECTION ( 'NONE',  ( 0.000000000000000000, 0.000000000000000000, -1.000000000000000000 ) ) ;
#317 = AXIS2_PLACEMENT_3D ( 'NONE', #538, #946, #848 ) ;
#318 = DIRECTION ( 'NONE',  ( -0.000000000000000000, -0.000000000000000000, 1.000000000000000000 ) ) ;
#319 = FACE_BOUND ( 'NONE', #631, .T. ) ;
#320 = ORIENTED_EDGE ( 'NONE', *, *, #59, .T. ) ;
#321 = ORIENTED_EDGE ( 'NONE', *, *, #864, .F. ) ;
#322 = AXIS2_PLACEMENT_3D ( 'NONE', #349, #481, #173 ) ;
#323 = CYLINDRICAL_SURFACE ( 'NONE', #1002, 8.000000000000000000 ) ;
#324 = EDGE_LOOP ( 'NONE', ( #557, #563 ) ) ;
#325 =( REPRESENTATION_RELATIONSHIP ('NONE','NONE', #99, #1277 ) REPRESENTATION_RELATIONSHIP_WITH_TRANSFORMATION ( #577 )SHAPE_REPRESENTATION_RELATIONSHIP( ) );
#326 = PRODUCT_RELATED_PRODUCT_CATEGORY ( 'part', '', ( #380 ) ) ;
#327 = DIRECTION ( 'NONE',  ( 1.000000000000000000, 0.000000000000000000, 0.000000000000000000 ) ) ;
#328 = EDGE_LOOP ( 'NONE', ( #589, #65 ) ) ;
#329 = CARTESIAN_POINT ( 'NONE',  ( 0.000000000000000000, 0.000000000000000000, 2.200000000000000622 ) ) ;
#330 = MANIFOLD_SOLID_BREP ( 'Mirror1', #73 ) ;
#331 = DIRECTION ( 'NONE',  ( -1.000000000000000000, 0.000000000000000000, 0.000000000000000000 ) ) ;
#332 = EDGE_CURVE ( 'NONE', #969, #1098, #1052, .T. ) ;
#333 = CIRCLE ( 'NONE', #867, 6.350000000000004974 ) ;
#334 = ORIENTED_EDGE ( 'NONE', *, *, #456, .F. ) ;
#335 = FACE_OUTER_BOUND ( 'NONE', #81, .T. ) ;
#336 = VERTEX_POINT ( 'NONE', #1071 ) ;
#337 = CIRCLE ( 'NONE', #108, 8.000000000000007105 ) ;
#338 = FACE_BOUND ( 'NONE', #1280, .T. ) ;
#339 = CARTESIAN_POINT ( 'NONE',  ( -2.499999999999998668, 0.000000000000000000, 0.000000000000000000 ) ) ;
#340 = ORIENTED_EDGE ( 'NONE', *, *, #273, .T. ) ;
#341 = DIRECTION ( 'NONE',  ( 0.000000000000000000, 0.000000000000000000, -1.000000000000000000 ) ) ;
#342 = FILL_AREA_STYLE ('',( #1150 ) ) ;
#343 = PLANE ( 'NONE',  #416 ) ;
#344 = ORIENTED_EDGE ( 'NONE', *, *, #710, .T. ) ;
#345 = EDGE_CURVE ( 'NONE', #1028, #466, #989, .T. ) ;
#346 = CARTESIAN_POINT ( 'NONE',  ( 0.000000000000000000, 0.000000000000000000, 5.000000000000000000 ) ) ;
#347 = SURFACE_STYLE_USAGE ( .BOTH. , #860 ) ;
#348 = DIRECTION ( 'NONE',  ( 1.000000000000000000, 0.000000000000000000, 0.000000000000000000 ) ) ;
#349 = CARTESIAN_POINT ( 'NONE',  ( 2.499999999999998668, 0.000000000000000000, 0.000000000000000000 ) ) ;
#350 = ORIENTED_EDGE ( 'NONE', *, *, #84, .F. ) ;
#351 = CIRCLE ( 'NONE', #503, 6.350000000000004974 ) ;
#352 = ADVANCED_FACE ( 'NONE', ( #979 ), #158, .T. ) ;
#353 = AXIS2_PLACEMENT_3D ( 'NONE', #6, #1123, #216 ) ;
#354 = TOROIDAL_SURFACE ( 'NONE', #292, 7.700000000000005507, 0.3000000000000007661 ) ;
#355 = EDGE_CURVE ( 'NONE', #469, #1138, #1027, .T. ) ;
#356 = DIRECTION ( 'NONE',  ( 0.000000000000000000, 0.000000000000000000, -1.000000000000000000 ) ) ;
#357 = LINE ( 'NONE', #978, #63 ) ;
#358 = DIRECTION ( 'NONE',  ( -1.000000000000000000, -0.000000000000000000, -0.000000000000000000 ) ) ;
#359 = VERTEX_POINT ( 'NONE', #1162 ) ;
#360 =( GEOMETRIC_REPRESENTATION_CONTEXT ( 3 ) GLOBAL_UNCERTAINTY_ASSIGNED_CONTEXT ( ( #823 ) ) GLOBAL_UNIT_ASSIGNED_CONTEXT ( ( #411, #926, #1108 ) ) REPRESENTATION_CONTEXT ( 'NONE', 'WORKASPACE' ) );
#361 = CIRCLE ( 'NONE', #1104, 1.650000000000000355 ) ;
#362 = ORIENTED_EDGE ( 'NONE', *, *, #164, .T. ) ;
#363 = CARTESIAN_POINT ( 'NONE',  ( 0.000000000000000000, 0.000000000000000000, 0.000000000000000000 ) ) ;
#364 = CARTESIAN_POINT ( 'NONE',  ( -8.000000000000000000, 0.000000000000000000, 5.000000000000000000 ) ) ;
#365 = CARTESIAN_POINT ( 'NONE',  ( -1.229837387624883815, 0.000000000000000000, -4.149999999999999467 ) ) ;
#366 = EDGE_LOOP ( 'NONE', ( #709, #459, #224, #1310 ) ) ;
#367 = VERTEX_POINT ( 'NONE', #372 ) ;
#368 = ORIENTED_EDGE ( 'NONE', *, *, #1137, .T. ) ;
#369 = AXIS2_PLACEMENT_3D ( 'NONE', #441, #546, #955 ) ;
#370 = EDGE_CURVE ( 'NONE', #841, #231, #779, .T. ) ;
#371 = FACE_OUTER_BOUND ( 'NONE', #957, .T. ) ;
#372 = CARTESIAN_POINT ( 'NONE',  ( 2.200000000000000622, 3.245314017740485469E-16, 2.499999999999998668 ) ) ;
#373 = VERTEX_POINT ( 'NONE', #454 ) ;
#374 = EDGE_CURVE ( 'NONE', #57, #239, #1236, .T. ) ;
#375 = ORIENTED_EDGE ( 'NONE', *, *, #692, .F. ) ;
#376 = ORIENTED_EDGE ( 'NONE', *, *, #729, .F. ) ;
#377 = DIRECTION ( 'NONE',  ( 1.000000000000000000, 0.000000000000000000, 0.000000000000000000 ) ) ;
#378 = CIRCLE ( 'NONE', #830, 6.350000000000004974 ) ;
#379 = CYLINDRICAL_SURFACE ( 'NONE', #125, 12.00000000000000533 ) ;
#380 = PRODUCT ( 'roller', 'roller', '', ( #407 ) ) ;
#381 = DIRECTION ( 'NONE',  ( 0.000000000000000000, 1.000000000000000000, -1.224646799147353207E-16 ) ) ;
#382 = VECTOR ( 'NONE', #584, 1000.000000000000000 ) ;
#383 = VERTEX_POINT ( 'NONE', #681 ) ;
#384 = FILL_AREA_STYLE_COLOUR ( '', #254 ) ;
#385 = DIRECTION ( 'NONE',  ( 1.000000000000000000, 0.000000000000000000, 0.000000000000000000 ) ) ;
#386 = DIRECTION ( 'NONE',  ( 0.000000000000000000, 0.000000000000000000, -1.000000000000000000 ) ) ;
#387 = CARTESIAN_POINT ( 'NONE',  ( 0.000000000000000000, 0.000000000000000000, 5.000000000000000000 ) ) ;
#388 = AXIS2_PLACEMENT_3D ( 'NONE', #594, #586, #706 ) ;
#389 = EDGE_CURVE ( 'NONE', #1294, #1048, #1084, .T. ) ;
#390 = DIRECTION ( 'NONE',  ( 0.000000000000000000, 0.000000000000000000, 1.000000000000000000 ) ) ;
#391 = CARTESIAN_POINT ( 'NONE',  ( -2.499999999999998668, 5.082284216461513184E-16, 4.149999999999998579 ) ) ;
#392 = CONTEXT_DEPENDENT_SHAPE_REPRESENTATION ( #325, #761 ) ;
#393 = ORIENTED_EDGE ( 'NONE', *, *, #1199, .F. ) ;
#394 = EDGE_CURVE ( 'NONE', #1175, #106, #688, .T. ) ;
#395 = CARTESIAN_POINT ( 'NONE',  ( 0.000000000000000000, 0.000000000000000000, 10.40000000000000036 ) ) ;
#396 = CYLINDRICAL_SURFACE ( 'NONE', #1181, 8.000000000000007105 ) ;
#397 = ADVANCED_FACE ( 'NONE', ( #279 ), #626, .T. ) ;
#398 = APPLICATION_CONTEXT ( 'automotive_design' ) ;
#399 = DIRECTION ( 'NONE',  ( 1.000000000000000000, 0.000000000000000000, 0.000000000000000000 ) ) ;
#400 = AXIS2_PLACEMENT_3D ( 'NONE', #1272, #450, #1265 ) ;
#401 = DIRECTION ( 'NONE',  ( -1.000000000000000000, -0.000000000000000000, -0.000000000000000000 ) ) ;
#402 = ORIENTED_EDGE ( 'NONE', *, *, #834, .T. ) ;
#403 = CIRCLE ( 'NONE', #295, 8.000000000000000000 ) ;
#404 = TOROIDAL_SURFACE ( 'NONE', #26, 5.250000000000000000, 1.650000000000000355 ) ;
#405 = CARTESIAN_POINT ( 'NONE',  ( 12.00000000000000533, 1.469576158976824539E-15, 10.40000000000000036 ) ) ;
#406 = UNCERTAINTY_MEASURE_WITH_UNIT (LENGTH_MEASURE( 1.000000000000000082E-05 ), #862, 'distance_accuracy_value', 'NONE');
#407 = PRODUCT_CONTEXT ( 'NONE', #580, 'mechanical' ) ;
#408 = DIRECTION ( 'NONE',  ( 0.000000000000000000, 1.224646799147351482E-16, 1.000000000000000000 ) ) ;
#409 = CARTESIAN_POINT ( 'NONE',  ( 2.500000000000000000, 3.061616997868383141E-16, 10.40000000000000036 ) ) ;
#410 = VERTEX_POINT ( 'NONE', #365 ) ;
#411 =( LENGTH_UNIT ( ) NAMED_UNIT ( * ) SI_UNIT ( .MILLI., .METRE. ) );
#412 = DIRECTION ( 'NONE',  ( -0.000000000000000000, -0.000000000000000000, -1.000000000000000000 ) ) ;
#413 = EDGE_CURVE ( 'NONE', #410, #383, #730, .T. ) ;
#414 = CARTESIAN_POINT ( 'NONE',  ( -2.200000000000000622, 0.000000000000000000, 0.000000000000000000 ) ) ;
#415 = DIRECTION ( 'NONE',  ( -0.7071067811865466846, 0.000000000000000000, -0.7071067811865483499 ) ) ;
#416 = AXIS2_PLACEMENT_3D ( 'NONE', #1190, #1009, #1260 ) ;
#417 = ORIENTED_EDGE ( 'NONE', *, *, #489, .T. ) ;
#418 = EDGE_CURVE ( 'NONE', #802, #870, #1065, .T. ) ;
#419 = FACE_OUTER_BOUND ( 'NONE', #1111, .T. ) ;
#420 = PRODUCT_DEFINITION_CONTEXT ( 'detailed design', #134, 'design' ) ;
#421 = CIRCLE ( 'NONE', #803, 6.350000000000004974 ) ;
#422 = DIRECTION ( 'NONE',  ( 0.000000000000000000, 0.000000000000000000, -1.000000000000000000 ) ) ;
#423 = CARTESIAN_POINT ( 'NONE',  ( 2.500000000000000000, 7.700000000000005507, 0.000000000000000000 ) ) ;
#424 = FACE_OUTER_BOUND ( 'NONE', #324, .T. ) ;
#425 = STYLED_ITEM ( 'NONE', ( #1075 ), #760 ) ;
#426 = ORIENTED_EDGE ( 'NONE', *, *, #964, .T. ) ;
#427 = CARTESIAN_POINT ( 'NONE',  ( 7.676034442323242502, 11.97453507004412820, 22.17246972352032230 ) ) ;
#428 = AXIS2_PLACEMENT_3D ( 'NONE', #139, #1135, #519 ) ;
#429 = DIRECTION ( 'NONE',  ( 1.000000000000000000, 0.000000000000000000, 0.000000000000000000 ) ) ;
#430 = CARTESIAN_POINT ( 'NONE',  ( 9.799999999999995381, 1.200153863164405754E-15, 10.40000000000000036 ) ) ;
#431 = AXIS2_PLACEMENT_3D ( 'NONE', #280, #286, #697 ) ;
#432 = ORIENTED_EDGE ( 'NONE', *, *, #418, .F. ) ;
#433 = EDGE_CURVE ( 'NONE', #880, #1058, #797, .T. ) ;
#434 = PRODUCT_CONTEXT ( 'NONE', #511, 'mechanical' ) ;
#435 = ORIENTED_EDGE ( 'NONE', *, *, #1043, .T. ) ;
#436 = DIRECTION ( 'NONE',  ( 1.000000000000000000, 0.000000000000000000, 0.000000000000000000 ) ) ;
#437 = DIRECTION ( 'NONE',  ( 0.000000000000000000, 0.000000000000000000, 1.000000000000000000 ) ) ;
#438 = ORIENTED_EDGE ( 'NONE', *, *, #827, .F. ) ;
#439 = PLANE ( 'NONE',  #296 ) ;
#440 = DIRECTION ( 'NONE',  ( 0.000000000000000000, 0.000000000000000000, -1.000000000000000000 ) ) ;
#441 = CARTESIAN_POINT ( 'NONE',  ( -2.199999999999999734, 0.000000000000000000, -7.700000000000005507 ) ) ;
#442 = AXIS2_PLACEMENT_3D ( 'NONE', #585, #893, #485 ) ;
#443 = ORIENTED_EDGE ( 'NONE', *, *, #570, .T. ) ;
#444 = DIRECTION ( 'NONE',  ( -1.000000000000000000, -0.000000000000000000, -0.000000000000000000 ) ) ;
#445 = FACE_OUTER_BOUND ( 'NONE', #272, .T. ) ;
#446 = DIRECTION ( 'NONE',  ( 0.000000000000000000, 0.000000000000000000, -1.000000000000000000 ) ) ;
#447 = EDGE_LOOP ( 'NONE', ( #1177, #210, #1153, #819 ) ) ;
#448 = ADVANCED_FACE ( 'NONE', ( #506 ), #909, .T. ) ;
#449 = DIRECTION ( 'NONE',  ( 0.000000000000000000, 0.000000000000000000, 1.000000000000000000 ) ) ;
#450 = DIRECTION ( 'NONE',  ( 1.000000000000000000, 0.000000000000000000, 0.000000000000000000 ) ) ;
#451 = CARTESIAN_POINT ( 'NONE',  ( 0.000000000000000000, 0.000000000000000000, 5.000000000000000000 ) ) ;
#452 = EDGE_CURVE ( 'NONE', #657, #1163, #965, .T. ) ;
#453 = VECTOR ( 'NONE', #56, 1000.000000000000000 ) ;
#454 = CARTESIAN_POINT ( 'NONE',  ( -2.499999999999998668, 0.000000000000000000, -7.700000000000005507 ) ) ;
#455 = ORIENTED_EDGE ( 'NONE', *, *, #640, .T. ) ;
#456 = EDGE_CURVE ( 'NONE', #169, #336, #689, .T. ) ;
#457 = LINE ( 'NONE', #1264, #460 ) ;
#458 = DIRECTION ( 'NONE',  ( 1.000000000000000000, 0.000000000000000000, 0.000000000000000000 ) ) ;
#459 = ORIENTED_EDGE ( 'NONE', *, *, #746, .T. ) ;
#460 = VECTOR ( 'NONE', #155, 1000.000000000000000 ) ;
#461 = ORIENTED_EDGE ( 'NONE', *, *, #793, .T. ) ;
#462 = AXIS2_PLACEMENT_3D ( 'NONE', #687, #992, #1011 ) ;
#463 = DIRECTION ( 'NONE',  ( 0.000000000000000000, 0.000000000000000000, 1.000000000000000000 ) ) ;
#464 = AXIS2_PLACEMENT_3D ( 'NONE', #801, #4, #408 ) ;
#465 = DIRECTION ( 'NONE',  ( -0.000000000000000000, -0.000000000000000000, -1.000000000000000000 ) ) ;
#466 = VERTEX_POINT ( 'NONE', #1007 ) ;
#467 = AXIS2_PLACEMENT_3D ( 'NONE', #1257, #673, #356 ) ;
#468 = AXIS2_PLACEMENT_3D ( 'NONE', #1258, #667, #1251 ) ;
#469 = VERTEX_POINT ( 'NONE', #391 ) ;
#470 = ORIENTED_EDGE ( 'NONE', *, *, #313, .T. ) ;
#471 = CYLINDRICAL_SURFACE ( 'NONE', #958, 2.499999999999999112 ) ;
#472 = PLANE ( 'NONE',  #21 ) ;
#473 = ADVANCED_FACE ( 'NONE', ( #917 ), #97, .T. ) ;
#474 = AXIS2_PLACEMENT_3D ( 'NONE', #387, #268, #588 ) ;
#475 = EDGE_LOOP ( 'NONE', ( #975, #98, #320, #849 ) ) ;
#476 = ORIENTED_EDGE ( 'NONE', *, *, #218, .F. ) ;
#477 = ORIENTED_EDGE ( 'NONE', *, *, #793, .F. ) ;
#478 =( GEOMETRIC_REPRESENTATION_CONTEXT ( 3 ) GLOBAL_UNCERTAINTY_ASSIGNED_CONTEXT ( ( #406 ) ) GLOBAL_UNIT_ASSIGNED_CONTEXT ( ( #862, #968, #894 ) ) REPRESENTATION_CONTEXT ( 'NONE', 'WORKASPACE' ) );
#479 = CARTESIAN_POINT ( 'NONE',  ( -20.63749999999999929, 0.000000000000000000, 0.000000000000000000 ) ) ;
#480 = CARTESIAN_POINT ( 'NONE',  ( 1.229837387624880707, 0.000000000000000000, 0.000000000000000000 ) ) ;
#481 = DIRECTION ( 'NONE',  ( 1.000000000000000000, 0.000000000000000000, 0.000000000000000000 ) ) ;
#482 = ORIENTED_EDGE ( 'NONE', *, *, #5, .F. ) ;
#483 = ORIENTED_EDGE ( 'NONE', *, *, #945, .T. ) ;
#484 = CIRCLE ( 'NONE', #616, 2.500000000000000000 ) ;
#485 = DIRECTION ( 'NONE',  ( 1.000000000000000000, 0.000000000000000000, 0.000000000000000000 ) ) ;
#486 = DIRECTION ( 'NONE',  ( 0.000000000000000000, 0.000000000000000000, 1.000000000000000000 ) ) ;
#487 = ORIENTED_EDGE ( 'NONE', *, *, #748, .T. ) ;
#488 = AXIS2_PLACEMENT_3D ( 'NONE', #1249, #144, #341 ) ;
#489 = EDGE_CURVE ( 'NONE', #1175, #1184, #1081, .T. ) ;
#490 = VECTOR ( 'NONE', #123, 1000.000000000000000 ) ;
#491 = FACE_OUTER_BOUND ( 'NONE', #80, .T. ) ;
#492 = DIRECTION ( 'NONE',  ( -1.000000000000000000, 0.000000000000000000, 0.000000000000000000 ) ) ;
#493 = DIRECTION ( 'NONE',  ( 1.000000000000000000, 0.000000000000000000, 0.000000000000000000 ) ) ;
#494 = EDGE_CURVE ( 'NONE', #1028, #367, #742, .T. ) ;
#495 = ORIENTED_EDGE ( 'NONE', *, *, #497, .F. ) ;
#496 = AXIS2_PLACEMENT_3D ( 'NONE', #64, #1090, #266 ) ;
#497 = EDGE_CURVE ( 'NONE', #1079, #106, #509, .T. ) ;
#498 = FACE_OUTER_BOUND ( 'NONE', #253, .T. ) ;
#499 = DIRECTION ( 'NONE',  ( 1.000000000000000000, 0.000000000000000000, 0.000000000000000000 ) ) ;
#500 = CARTESIAN_POINT ( 'NONE',  ( 0.000000000000000000, 0.000000000000000000, 2.200000000000000622 ) ) ;
#501 = ORIENTED_EDGE ( 'NONE', *, *, #47, .T. ) ;
#502 = SURFACE_STYLE_USAGE ( .BOTH. , #1010 ) ;
#503 = AXIS2_PLACEMENT_3D ( 'NONE', #1198, #77, #807 ) ;
#504 = DIRECTION ( 'NONE',  ( 0.000000000000000000, 0.000000000000000000, -1.000000000000000000 ) ) ;
#505 = DIRECTION ( 'NONE',  ( 1.000000000000000000, 0.000000000000000000, 0.000000000000000000 ) ) ;
#506 = FACE_OUTER_BOUND ( 'NONE', #1032, .T. ) ;
#507 = DIRECTION ( 'NONE',  ( -0.000000000000000000, -0.000000000000000000, 1.000000000000000000 ) ) ;
#508 = ORIENTED_EDGE ( 'NONE', *, *, #911, .T. ) ;
#509 = CIRCLE ( 'NONE', #232, 12.00000000000000533 ) ;
#510 = EDGE_CURVE ( 'NONE', #1037, #1079, #796, .T. ) ;
#511 = APPLICATION_CONTEXT ( 'automotive_design' ) ;
#512 = CARTESIAN_POINT ( 'NONE',  ( -2.499999999999999556, 0.000000000000000000, -2.799999999999999822 ) ) ;
#513 = PRODUCT_DEFINITION_CONTEXT ( 'detailed design', #604, 'design' ) ;
#514 = DIRECTION ( 'NONE',  ( -0.000000000000000000, -0.000000000000000000, -1.000000000000000000 ) ) ;
#515 = ADVANCED_FACE ( 'NONE', ( #285 ), #903, .F. ) ;
#516 = DIRECTION ( 'NONE',  ( 1.000000000000000000, 0.000000000000000000, 0.000000000000000000 ) ) ;
#517 = ORIENTED_EDGE ( 'NONE', *, *, #653, .F. ) ;
#518 = CARTESIAN_POINT ( 'NONE',  ( 2.499999999999999556, 3.429011037612589276E-16, 2.799999999999999822 ) ) ;
#519 = DIRECTION ( 'NONE',  ( 0.000000000000000000, 0.000000000000000000, 1.000000000000000000 ) ) ;
#520 = LINE ( 'NONE', #430, #768 ) ;
#521 = EDGE_LOOP ( 'NONE', ( #1254, #167, #274, #376 ) ) ;
#522 = AXIS2_PLACEMENT_3D ( 'NONE', #543, #444, #449 ) ;
#523 = DIRECTION ( 'NONE',  ( 1.000000000000000000, 0.000000000000000000, 0.000000000000000000 ) ) ;
#524 = ORIENTED_EDGE ( 'NONE', *, *, #1061, .T. ) ;
#525 = AXIS2_PLACEMENT_3D ( 'NONE', #23, #622, #327 ) ;
#526 = DIRECTION ( 'NONE',  ( 0.000000000000000000, 0.000000000000000000, -1.000000000000000000 ) ) ;
#527 = FACE_OUTER_BOUND ( 'NONE', #447, .T. ) ;
#528 = AXIS2_PLACEMENT_3D ( 'NONE', #571, #674, #1173 ) ;
#529 = VERTEX_POINT ( 'NONE', #93 ) ;
#530 = ADVANCED_FACE ( 'NONE', ( #291 ), #993, .F. ) ;
#531 = CARTESIAN_POINT ( 'NONE',  ( 7.676034442323244278, 11.97453507004412820, 16.77246972352032373 ) ) ;
#532 = CIRCLE ( 'NONE', #704, 0.3000000000000003775 ) ;
#533 = CARTESIAN_POINT ( 'NONE',  ( 0.000000000000000000, 0.000000000000000000, 5.399999999999999467 ) ) ;
#534 = DIRECTION ( 'NONE',  ( 1.000000000000000000, 0.000000000000000000, 0.000000000000000000 ) ) ;
#535 = CIRCLE ( 'NONE', #1274, 4.149999999999999467 ) ;
#536 = VERTEX_POINT ( 'NONE', #195 ) ;
#537 =( REPRESENTATION_RELATIONSHIP ('NONE','NONE', #99, #15 ) REPRESENTATION_RELATIONSHIP_WITH_TRANSFORMATION ( #815 )SHAPE_REPRESENTATION_RELATIONSHIP( ) );
#538 = CARTESIAN_POINT ( 'NONE',  ( 0.000000000000000000, 6.429395695523604153E-16, -5.250000000000000000 ) ) ;
#539 = LINE ( 'NONE', #1030, #490 ) ;
#540 = FACE_OUTER_BOUND ( 'NONE', #582, .T. ) ;
#541 = ORIENTED_EDGE ( 'NONE', *, *, #355, .F. ) ;
#542 = PRESENTATION_LAYER_ASSIGNMENT (  '', '', ( #243 ) ) ;
#543 = CARTESIAN_POINT ( 'NONE',  ( 0.000000000000000000, 0.000000000000000000, 0.000000000000000000 ) ) ;
#544 = DIRECTION ( 'NONE',  ( -0.000000000000000000, 1.000000000000000000, 1.224646799147353207E-16 ) ) ;
#545 = ADVANCED_BREP_SHAPE_REPRESENTATION ( '', ( #330, #90 ), #192 ) ;
#546 = DIRECTION ( 'NONE',  ( 0.000000000000000000, -1.000000000000000000, 0.000000000000000000 ) ) ;
#547 = EDGE_LOOP ( 'NONE', ( #1306, #1185, #126, #477 ) ) ;
#548 = CIRCLE ( 'NONE', #209, 4.149999999999999467 ) ;
#549 = EDGE_CURVE ( 'NONE', #169, #1048, #337, .T. ) ;
#550 = PRODUCT_DEFINITION_SHAPE ( 'NONE', 'NONE',  #1064 ) ;
#551 = DIRECTION ( 'NONE',  ( 1.000000000000000000, 0.000000000000000000, 0.000000000000000000 ) ) ;
#552 =( LENGTH_UNIT ( ) NAMED_UNIT ( * ) SI_UNIT ( .MILLI., .METRE. ) );
#553 = COLOUR_RGB ( '',0.7764705882352941346, 0.7568627450980391913, 0.7372549019607843590 ) ;
#554 = CARTESIAN_POINT ( 'NONE',  ( -1.229837387624880707, 7.776507174585699066E-16, -6.350000000000004974 ) ) ;
#555 = EDGE_CURVE ( 'NONE', #1130, #336, #703, .T. ) ;
#556 = SURFACE_STYLE_USAGE ( .BOTH. , #758 ) ;
#557 = ORIENTED_EDGE ( 'NONE', *, *, #1004, .F. ) ;
#558 = DIRECTION ( 'NONE',  ( 0.000000000000000000, 0.000000000000000000, 1.000000000000000000 ) ) ;
#559 = DIRECTION ( 'NONE',  ( 0.000000000000000000, 0.000000000000000000, -1.000000000000000000 ) ) ;
#560 = VECTOR ( 'NONE', #1189, 1000.000000000000000 ) ;
#561 = DIRECTION ( 'NONE',  ( 1.000000000000000000, 0.000000000000000000, 0.000000000000000000 ) ) ;
#562 = ORIENTED_EDGE ( 'NONE', *, *, #892, .F. ) ;
#563 = ORIENTED_EDGE ( 'NONE', *, *, #570, .F. ) ;
#564 = DIRECTION ( 'NONE',  ( 0.000000000000000000, 1.000000000000000000, -1.224646799147353207E-16 ) ) ;
#565 = DIRECTION ( 'NONE',  ( -0.000000000000000000, 0.000000000000000000, 1.000000000000000000 ) ) ;
#566 = PRESENTATION_STYLE_ASSIGNMENT (( #556 ) ) ;
#567 = ORIENTED_EDGE ( 'NONE', *, *, #1293, .T. ) ;
#568 = VECTOR ( 'NONE', #1308, 1000.000000000000000 ) ;
#569 = ORIENTED_EDGE ( 'NONE', *, *, #1197, .T. ) ;
#570 = EDGE_CURVE ( 'NONE', #683, #997, #403, .T. ) ;
#571 = CARTESIAN_POINT ( 'NONE',  ( -2.499999999999999556, 4.149999999999998579, 0.000000000000000000 ) ) ;
#572 = AXIS2_PLACEMENT_3D ( 'NONE', #696, #1095, #913 ) ;
#573 = EDGE_LOOP ( 'NONE', ( #1021, #853, #920, #904 ) ) ;
#574 = CIRCLE ( 'NONE', #3, 4.149999999999999467 ) ;
#575 = EDGE_LOOP ( 'NONE', ( #890, #1250 ) ) ;
#576 = VERTEX_POINT ( 'NONE', #850 ) ;
#577 = ITEM_DEFINED_TRANSFORMATION ( 'NONE', 'NONE', #20,  #90 ) ;
#578 =( REPRESENTATION_RELATIONSHIP ('NONE','NONE', #99, #1277 ) REPRESENTATION_RELATIONSHIP_WITH_TRANSFORMATION ( #109 )SHAPE_REPRESENTATION_RELATIONSHIP( ) );
#579 = DIRECTION ( 'NONE',  ( 1.000000000000000000, 0.000000000000000000, 0.000000000000000000 ) ) ;
#580 = APPLICATION_CONTEXT ( 'automotive_design' ) ;
#581 = CARTESIAN_POINT ( 'NONE',  ( 2.199999999999999734, 9.429780353434626918E-16, 7.700000000000005507 ) ) ;
#582 = EDGE_LOOP ( 'NONE', ( #1077, #639, #368, #777 ) ) ;
#583 = CIRCLE ( 'NONE', #949, 8.000000000000000000 ) ;
#584 = DIRECTION ( 'NONE',  ( 1.000000000000000000, 0.000000000000000000, 0.000000000000000000 ) ) ;
#585 = CARTESIAN_POINT ( 'NONE',  ( 0.000000000000000000, 0.000000000000000000, 2.200000000000000622 ) ) ;
#586 = DIRECTION ( 'NONE',  ( 0.000000000000000000, -1.000000000000000000, 0.000000000000000000 ) ) ;
#587 = ADVANCED_FACE ( 'NONE', ( #1025 ), #1041, .T. ) ;
#588 = DIRECTION ( 'NONE',  ( -1.000000000000000000, 0.000000000000000000, -0.000000000000000000 ) ) ;
#589 = ORIENTED_EDGE ( 'NONE', *, *, #671, .T. ) ;
#590 = CIRCLE ( 'NONE', #229, 8.000000000000007105 ) ;
#591 = SURFACE_STYLE_USAGE ( .BOTH. , #185 ) ;
#592 = EDGE_CURVE ( 'NONE', #281, #7, #873, .T. ) ;
#593 = DIRECTION ( 'NONE',  ( 0.000000000000000000, 0.000000000000000000, -1.000000000000000000 ) ) ;
#594 = CARTESIAN_POINT ( 'NONE',  ( 2.199999999999999734, 0.000000000000000000, -7.700000000000005507 ) ) ;
#595 = EDGE_CURVE ( 'NONE', #529, #826, #641, .T. ) ;
#596 = ORIENTED_EDGE ( 'NONE', *, *, #929, .F. ) ;
#597 = AXIS2_PLACEMENT_3D ( 'NONE', #149, #551, #912 ) ;
#598 = CIRCLE ( 'NONE', #1044, 7.700000000000005507 ) ;
#599 = TOROIDAL_SURFACE ( 'NONE', #302, 7.700000000000005507, 0.3000000000000007661 ) ;
#600 = DIRECTION ( 'NONE',  ( 1.000000000000000000, 0.000000000000000000, 0.000000000000000000 ) ) ;
#601 = DIRECTION ( 'NONE',  ( -0.000000000000000000, -0.000000000000000000, -1.000000000000000000 ) ) ;
#602 = DIRECTION ( 'NONE',  ( 0.000000000000000000, 0.000000000000000000, -1.000000000000000000 ) ) ;
#603 = ORIENTED_EDGE ( 'NONE', *, *, #695, .T. ) ;
#604 = APPLICATION_CONTEXT ( 'automotive_design' ) ;
#605 = SURFACE_STYLE_FILL_AREA ( #113 ) ;
#606 = DIRECTION ( 'NONE',  ( 1.000000000000000000, 0.000000000000000000, 0.000000000000000000 ) ) ;
#607 = CARTESIAN_POINT ( 'NONE',  ( 2.200000000000000622, 0.000000000000000000, 0.000000000000000000 ) ) ;
#608 = CARTESIAN_POINT ( 'NONE',  ( -2.200000000000000178, 0.000000000000000000, 0.000000000000000000 ) ) ;
#609 = ADVANCED_FACE ( 'NONE', ( #1140 ), #1038, .T. ) ;
#610 = EDGE_LOOP ( 'NONE', ( #141, #1268, #721, #334 ) ) ;
#611 = AXIS2_PLACEMENT_3D ( 'NONE', #105, #507, #34 ) ;
#612 = PRODUCT_DEFINITION_FORMATION_WITH_SPECIFIED_SOURCE ( 'ANY', '', #380, .NOT_KNOWN. ) ;
#613 = ADVANCED_FACE ( 'NONE', ( #733 ), #323, .F. ) ;
#614 = CIRCLE ( 'NONE', #288, 2.799999999999999822 ) ;
#615 = DIRECTION ( 'NONE',  ( 0.000000000000000000, 0.000000000000000000, -1.000000000000000000 ) ) ;
#616 = AXIS2_PLACEMENT_3D ( 'NONE', #124, #810, #222 ) ;
#617 = CARTESIAN_POINT ( 'NONE',  ( 2.500000000000000000, 3.061616997868383141E-16, 5.399999999999999467 ) ) ;
#618 = DIRECTION ( 'NONE',  ( -1.000000000000000000, -0.000000000000000000, -0.000000000000000000 ) ) ;
#619 = ORIENTED_EDGE ( 'NONE', *, *, #370, .F. ) ;
#620 = AXIS2_PLACEMENT_3D ( 'NONE', #1243, #743, #1144 ) ;
#621 = CARTESIAN_POINT ( 'NONE',  ( 2.499999999999998668, 0.000000000000000000, 0.000000000000000000 ) ) ;
#622 = DIRECTION ( 'NONE',  ( 0.000000000000000000, 0.000000000000000000, 1.000000000000000000 ) ) ;
#623 = CARTESIAN_POINT ( 'NONE',  ( -8.000000000000000000, 9.797174393178825657E-16, 5.399999999999999467 ) ) ;
#624 = CARTESIAN_POINT ( 'NONE',  ( 0.000000000000000000, 0.000000000000000000, 5.399999999999999467 ) ) ;
#625 = EDGE_LOOP ( 'NONE', ( #728, #362, #753, #275 ) ) ;
#626 = TOROIDAL_SURFACE ( 'NONE', #1304, 5.250000000000000000, 1.650000000000000355 ) ;
#627 = DIRECTION ( 'NONE',  ( 1.000000000000000000, 0.000000000000000000, 0.000000000000000000 ) ) ;
#628 = FACE_OUTER_BOUND ( 'NONE', #301, .T. ) ;
#629 = CARTESIAN_POINT ( 'NONE',  ( -20.63749999999999929, 0.000000000000000000, 0.000000000000000000 ) ) ;
#630 = EDGE_CURVE ( 'NONE', #683, #239, #215, .T. ) ;
#631 = EDGE_LOOP ( 'NONE', ( #784, #48 ) ) ;
#632 = CONICAL_SURFACE ( 'NONE', #270, 9.799999999999995381, 0.7853981633974471688 ) ;
#633 = DIRECTION ( 'NONE',  ( 1.000000000000000000, 0.000000000000000000, 0.000000000000000000 ) ) ;
#634 = ORIENTED_EDGE ( 'NONE', *, *, #237, .T. ) ;
#635 = EDGE_CURVE ( 'NONE', #367, #359, #663, .T. ) ;
#636 = CARTESIAN_POINT ( 'NONE',  ( 0.000000000000000000, 0.000000000000000000, 5.250000000000000000 ) ) ;
#637 = CARTESIAN_POINT ( 'NONE',  ( -12.00000000000000533, 0.000000000000000000, 2.200000000000000622 ) ) ;
#638 = CIRCLE ( 'NONE', #353, 2.499999999999998668 ) ;
#639 = ORIENTED_EDGE ( 'NONE', *, *, #100, .F. ) ;
#640 = EDGE_CURVE ( 'NONE', #898, #802, #1165, .T. ) ;
#641 = CIRCLE ( 'NONE', #811, 2.499999999999999556 ) ;
#642 = TOROIDAL_SURFACE ( 'NONE', #597, 2.799999999999999822, 0.3000000000000001554 ) ;
#643 = SHAPE_DEFINITION_REPRESENTATION ( #550, #1277 ) ;
#644 = CARTESIAN_POINT ( 'NONE',  ( 2.200000000000000622, 0.000000000000000000, 0.000000000000000000 ) ) ;
#645 = CARTESIAN_POINT ( 'NONE',  ( 0.000000000000000000, 0.000000000000000000, 10.40000000000000036 ) ) ;
#646 = ORIENTED_EDGE ( 'NONE', *, *, #119, .F. ) ;
#647 = AXIS2_PLACEMENT_3D ( 'NONE', #581, #381, #294 ) ;
#648 = FACE_OUTER_BOUND ( 'NONE', #262, .T. ) ;
#649 = CARTESIAN_POINT ( 'NONE',  ( -2.200000000000000622, 0.000000000000000000, -2.499999999999999556 ) ) ;
#650 = CARTESIAN_POINT ( 'NONE',  ( 1.229837387624883815, 0.000000000000000000, 0.000000000000000000 ) ) ;
#651 = ORIENTED_EDGE ( 'NONE', *, *, #142, .T. ) ;
#652 = ADVANCED_FACE ( 'NONE', ( #628 ), #942, .F. ) ;
#653 = EDGE_CURVE ( 'NONE', #1072, #1163, #539, .T. ) ;
#654 = CARTESIAN_POINT ( 'NONE',  ( -2.499999999999998668, 9.613477373306729246E-16, 7.700000000000005507 ) ) ;
#655 = CARTESIAN_POINT ( 'NONE',  ( -2.200000000000000622, 0.000000000000000000, 0.000000000000000000 ) ) ;
#656 = DIRECTION ( 'NONE',  ( -1.000000000000000000, -0.000000000000000000, -0.000000000000000000 ) ) ;
#657 = VERTEX_POINT ( 'NONE', #110 ) ;
#658 = AXIS2_PLACEMENT_3D ( 'NONE', #629, #534, #1039 ) ;
#659 = CARTESIAN_POINT ( 'NONE',  ( 9.799999999999995381, 1.334865011070615048E-15, 10.40000000000000036 ) ) ;
#660 = DIRECTION ( 'NONE',  ( 1.000000000000000000, 0.000000000000000000, 0.000000000000000000 ) ) ;
#661 = CIRCLE ( 'NONE', #317, 1.650000000000000355 ) ;
#662 = DIRECTION ( 'NONE',  ( -1.000000000000000000, 0.000000000000000000, 0.000000000000000000 ) ) ;
#663 = CIRCLE ( 'NONE', #298, 2.499999999999998668 ) ;
#664 = DIRECTION ( 'NONE',  ( 0.000000000000000000, 0.000000000000000000, -1.000000000000000000 ) ) ;
#665 = ORIENTED_EDGE ( 'NONE', *, *, #313, .F. ) ;
#666 = DIRECTION ( 'NONE',  ( 1.000000000000000000, 0.000000000000000000, 0.000000000000000000 ) ) ;
#667 = DIRECTION ( 'NONE',  ( 1.000000000000000000, 0.000000000000000000, 0.000000000000000000 ) ) ;
#668 = AXIS2_PLACEMENT_3D ( 'NONE', #962, #52, #664 ) ;
#669 = DIRECTION ( 'NONE',  ( 1.000000000000000000, 0.000000000000000000, 0.000000000000000000 ) ) ;
#670 = ORIENTED_EDGE ( 'NONE', *, *, #122, .T. ) ;
#671 = EDGE_CURVE ( 'NONE', #336, #1130, #598, .T. ) ;
#672 = ORIENTED_EDGE ( 'NONE', *, *, #1008, .F. ) ;
#673 = DIRECTION ( 'NONE',  ( -1.000000000000000000, -0.000000000000000000, -0.000000000000000000 ) ) ;
#674 = DIRECTION ( 'NONE',  ( -1.000000000000000000, 0.000000000000000000, -0.000000000000000000 ) ) ;
#675 = APPLICATION_CONTEXT ( 'automotive_design' ) ;
#676 = ORIENTED_EDGE ( 'NONE', *, *, #418, .T. ) ;
#677 = VECTOR ( 'NONE', #601, 1000.000000000000000 ) ;
#678 = ORIENTED_EDGE ( 'NONE', *, *, #827, .T. ) ;
#679 = ORIENTED_EDGE ( 'NONE', *, *, #986, .T. ) ;
#680 = CARTESIAN_POINT ( 'NONE',  ( 2.499999999999998668, 0.000000000000000000, 0.000000000000000000 ) ) ;
#681 = CARTESIAN_POINT ( 'NONE',  ( -1.229837387624883815, 5.082284216461514170E-16, 4.149999999999999467 ) ) ;
#682 = EDGE_LOOP ( 'NONE', ( #1276, #835, #1287, #321 ) ) ;
#683 = VERTEX_POINT ( 'NONE', #206 ) ;
#684 = VERTEX_POINT ( 'NONE', #617 ) ;
#685 = ADVANCED_FACE ( 'NONE', ( #824, #1019 ), #225, .T. ) ;
#686 = CARTESIAN_POINT ( 'NONE',  ( 0.000000000000000000, 0.000000000000000000, 5.399999999999999467 ) ) ;
#687 = CARTESIAN_POINT ( 'NONE',  ( -2.499999999999998668, 0.000000000000000000, 0.000000000000000000 ) ) ;
#688 = LINE ( 'NONE', #1275, #560 ) ;
#689 = CIRCLE ( 'NONE', #388, 0.3000000000000016542 ) ;
#690 = ORIENTED_EDGE ( 'NONE', *, *, #1061, .F. ) ;
#691 = ORIENTED_EDGE ( 'NONE', *, *, #945, .F. ) ;
#692 = EDGE_CURVE ( 'NONE', #870, #855, #837, .T. ) ;
#693 = CARTESIAN_POINT ( 'NONE',  ( -2.200000000000000622, 9.797174393178835518E-16, 8.000000000000007105 ) ) ;
#694 = DIRECTION ( 'NONE',  ( 1.000000000000000000, 0.000000000000000000, 0.000000000000000000 ) ) ;
#695 = EDGE_CURVE ( 'NONE', #1091, #1037, #194, .T. ) ;
#696 = CARTESIAN_POINT ( 'NONE',  ( 0.000000000000000000, 0.000000000000000000, 5.000000000000000000 ) ) ;
#697 = DIRECTION ( 'NONE',  ( 0.000000000000000000, 0.000000000000000000, -1.000000000000000000 ) ) ;
#698 = AXIS2_PLACEMENT_3D ( 'NONE', #814, #1211, #829 ) ;
#699 = AXIS2_PLACEMENT_3D ( 'NONE', #973, #772, #1051 ) ;
#700 = CYLINDRICAL_SURFACE ( 'NONE', #235, 8.000000000000000000 ) ;
#701 = LINE ( 'NONE', #278, #568 ) ;
#702 = CARTESIAN_POINT ( 'NONE',  ( 0.000000000000000000, 0.000000000000000000, 8.199999999999985079 ) ) ;
#703 = CIRCLE ( 'NONE', #66, 7.700000000000005507 ) ;
#704 = AXIS2_PLACEMENT_3D ( 'NONE', #866, #150, #1146 ) ;
#705 = DIRECTION ( 'NONE',  ( 1.000000000000000000, 0.000000000000000000, 0.000000000000000000 ) ) ;
#706 = DIRECTION ( 'NONE',  ( 0.000000000000000000, 0.000000000000000000, -1.000000000000000000 ) ) ;
#707 = CARTESIAN_POINT ( 'NONE',  ( -20.63749999999999929, 5.082284216461514170E-16, 4.149999999999999467 ) ) ;
#708 = AXIS2_PLACEMENT_3D ( 'NONE', #305, #714, #1116 ) ;
#709 = ORIENTED_EDGE ( 'NONE', *, *, #389, .F. ) ;
#710 = EDGE_CURVE ( 'NONE', #576, #383, #361, .T. ) ;
#711 = CARTESIAN_POINT ( 'NONE',  ( 8.000000000000000000, 0.000000000000000000, 5.399999999999999467 ) ) ;
#712 = CARTESIAN_POINT ( 'NONE',  ( 0.000000000000000000, 0.000000000000000000, 0.000000000000000000 ) ) ;
#713 = CARTESIAN_POINT ( 'NONE',  ( 0.000000000000000000, 0.000000000000000000, 10.40000000000000036 ) ) ;
#714 = DIRECTION ( 'NONE',  ( -0.000000000000000000, -0.000000000000000000, 1.000000000000000000 ) ) ;
#715 = ORIENTED_EDGE ( 'NONE', *, *, #79, .T. ) ;
#716 = DIRECTION ( 'NONE',  ( 1.000000000000000000, 0.000000000000000000, 0.000000000000000000 ) ) ;
#717 = VECTOR ( 'NONE', #151, 1000.000000000000000 ) ;
#718 = CARTESIAN_POINT ( 'NONE',  ( 7.676034442323244278, 11.97453507004412820, 14.27246972352032373 ) ) ;
#719 = CYLINDRICAL_SURFACE ( 'NONE', #468, 6.350000000000004974 ) ;
#720 = CARTESIAN_POINT ( 'NONE',  ( 2.200000000000000622, 0.000000000000000000, -8.000000000000007105 ) ) ;
#721 = ORIENTED_EDGE ( 'NONE', *, *, #671, .F. ) ;
#722 = CIRCLE ( 'NONE', #902, 0.3000000000000003775 ) ;
#723 = DIRECTION ( 'NONE',  ( 0.000000000000000000, 0.000000000000000000, -1.000000000000000000 ) ) ;
#724 = ADVANCED_FACE ( 'NONE', ( #1221 ), #719, .F. ) ;
#725 = DIRECTION ( 'NONE',  ( 1.000000000000000000, 0.000000000000000000, 0.000000000000000000 ) ) ;
#726 = DIRECTION ( 'NONE',  ( 0.000000000000000000, -1.000000000000000000, 0.000000000000000000 ) ) ;
#727 = ORIENTED_EDGE ( 'NONE', *, *, #630, .F. ) ;
#728 = ORIENTED_EDGE ( 'NONE', *, *, #1231, .T. ) ;
#729 = EDGE_CURVE ( 'NONE', #826, #1058, #532, .T. ) ;
#730 = CIRCLE ( 'NONE', #668, 4.149999999999999467 ) ;
#731 = DIRECTION ( 'NONE',  ( 0.000000000000000000, 0.000000000000000000, 1.000000000000000000 ) ) ;
#732 = ORIENTED_EDGE ( 'NONE', *, *, #374, .T. ) ;
#733 = FACE_OUTER_BOUND ( 'NONE', #547, .T. ) ;
#734 = PRODUCT_DEFINITION ( 'UNKNOWN', '', #612, #420 ) ;
#735 = DIRECTION ( 'NONE',  ( -1.000000000000000000, 0.000000000000000000, 0.000000000000000000 ) ) ;
#736 = ORIENTED_EDGE ( 'NONE', *, *, #47, .F. ) ;
#737 = VECTOR ( 'NONE', #694, 1000.000000000000000 ) ;
#738 =( LENGTH_UNIT ( ) NAMED_UNIT ( * ) SI_UNIT ( .MILLI., .METRE. ) );
#739 = CARTESIAN_POINT ( 'NONE',  ( 2.499999999999998668, 0.000000000000000000, 0.000000000000000000 ) ) ;
#740 = DIRECTION ( 'NONE',  ( 0.000000000000000000, 0.000000000000000000, -1.000000000000000000 ) ) ;
#741 = VERTEX_POINT ( 'NONE', #249 ) ;
#742 = CIRCLE ( 'NONE', #464, 0.3000000000000003775 ) ;
#743 = DIRECTION ( 'NONE',  ( 0.000000000000000000, 0.000000000000000000, -1.000000000000000000 ) ) ;
#744 = CARTESIAN_POINT ( 'NONE',  ( -2.499999999999999556, 6.350000000000004974, 0.000000000000000000 ) ) ;
#745 = FACE_OUTER_BOUND ( 'NONE', #944, .T. ) ;
#746 = EDGE_CURVE ( 'NONE', #1294, #536, #136, .T. ) ;
#747 = ORIENTED_EDGE ( 'NONE', *, *, #1231, .F. ) ;
#748 = EDGE_CURVE ( 'NONE', #1048, #169, #590, .T. ) ;
#749 = CARTESIAN_POINT ( 'NONE',  ( 0.000000000000000000, 0.000000000000000000, 5.399999999999999467 ) ) ;
#750 = PLANE ( 'NONE',  #528 ) ;
#751 = CARTESIAN_POINT ( 'NONE',  ( 0.000000000000000000, 0.000000000000000000, 8.199999999999985079 ) ) ;
#752 = PRODUCT_DEFINITION_SHAPE ( 'NONE', 'NONE',  #1311 ) ;
#753 = ORIENTED_EDGE ( 'NONE', *, *, #413, .F. ) ;
#754 = CIRCLE ( 'NONE', #369, 0.3000000000000016542 ) ;
#755 = DIRECTION ( 'NONE',  ( 0.000000000000000000, 0.000000000000000000, -1.000000000000000000 ) ) ;
#756 = CIRCLE ( 'NONE', #1155, 2.799999999999999822 ) ;
#757 = DIRECTION ( 'NONE',  ( 0.000000000000000000, 0.000000000000000000, -1.000000000000000000 ) ) ;
#758 = SURFACE_SIDE_STYLE ('',( #71 ) ) ;
#759 = ORIENTED_EDGE ( 'NONE', *, *, #1137, .F. ) ;
#760 = MANIFOLD_SOLID_BREP ( 'OuterRace', #1168 ) ;
#761 = PRODUCT_DEFINITION_SHAPE ( 'NONE', 'NONE',  #1313 ) ;
#762 = DIRECTION ( 'NONE',  ( 0.000000000000000000, 0.000000000000000000, -1.000000000000000000 ) ) ;
#763 = LINE ( 'NONE', #364, #1160 ) ;
#764 = ADVANCED_FACE ( 'NONE', ( #244, #876 ), #750, .T. ) ;
#765 = AXIS2_PLACEMENT_3D ( 'NONE', #423, #33, #526 ) ;
#766 = DIRECTION ( 'NONE',  ( 0.000000000000000000, 0.000000000000000000, 1.000000000000000000 ) ) ;
#767 = ORIENTED_EDGE ( 'NONE', *, *, #256, .T. ) ;
#768 = VECTOR ( 'NONE', #840, 1000.000000000000000 ) ;
#769 = ORIENTED_EDGE ( 'NONE', *, *, #864, .T. ) ;
#770 = ADVANCED_FACE ( 'NONE', ( #884 ), #45, .F. ) ;
#771 = DIRECTION ( 'NONE',  ( 1.000000000000000000, 0.000000000000000000, -0.000000000000000000 ) ) ;
#772 = DIRECTION ( 'NONE',  ( 1.000000000000000000, 0.000000000000000000, 0.000000000000000000 ) ) ;
#773 = DIRECTION ( 'NONE',  ( 0.000000000000000000, 0.000000000000000000, 1.000000000000000000 ) ) ;
#774 = ORIENTED_EDGE ( 'NONE', *, *, #592, .T. ) ;
#775 = ORIENTED_EDGE ( 'NONE', *, *, #1176, .F. ) ;
#776 = AXIS2_PLACEMENT_3D ( 'NONE', #1053, #1047, #348 ) ;
#777 = ORIENTED_EDGE ( 'NONE', *, *, #911, .F. ) ;
#778 = FACE_BOUND ( 'NONE', #1247, .T. ) ;
#779 = LINE ( 'NONE', #1290, #453 ) ;
#780 = ORIENTED_EDGE ( 'NONE', *, *, #276, .T. ) ;
#781 = PRODUCT_DEFINITION_FORMATION_WITH_SPECIFIED_SOURCE ( 'ANY', '', #887, .NOT_KNOWN. ) ;
#782 = TOROIDAL_SURFACE ( 'NONE', #83, 2.799999999999999822, 0.3000000000000001554 ) ;
#783 = EDGE_LOOP ( 'NONE', ( #1292, #1073, #676, #147 ) ) ;
#784 = ORIENTED_EDGE ( 'NONE', *, *, #1101, .F. ) ;
#785 = AXIS2_PLACEMENT_3D ( 'NONE', #961, #1252, #662 ) ;
#786 =( NAMED_UNIT ( * ) PLANE_ANGLE_UNIT ( ) SI_UNIT ( $, .RADIAN. ) );
#787 = CARTESIAN_POINT ( 'NONE',  ( 2.499999999999998668, 0.000000000000000000, 0.000000000000000000 ) ) ;
#788 = PRESENTATION_LAYER_ASSIGNMENT (  '', '', ( #939 ) ) ;
#789 = CARTESIAN_POINT ( 'NONE',  ( -20.63749999999999574, 9.797174393178835518E-16, 8.000000000000007105 ) ) ;
#790 = EDGE_CURVE ( 'NONE', #1285, #576, #357, .T. ) ;
#791 = FACE_OUTER_BOUND ( 'NONE', #1261, .T. ) ;
#792 = ORIENTED_EDGE ( 'NONE', *, *, #1055, .T. ) ;
#793 = EDGE_CURVE ( 'NONE', #741, #657, #763, .T. ) ;
#794 = FILL_AREA_STYLE ('',( #384 ) ) ;
#795 = LINE ( 'NONE', #1193, #737 ) ;
#796 = LINE ( 'NONE', #182, #1143 ) ;
#797 = CIRCLE ( 'NONE', #858, 2.799999999999999822 ) ;
#798 = DIRECTION ( 'NONE',  ( 0.000000000000000000, 0.000000000000000000, -1.000000000000000000 ) ) ;
#799 = DIRECTION ( 'NONE',  ( -0.000000000000000000, -0.000000000000000000, -1.000000000000000000 ) ) ;
#800 = DIRECTION ( 'NONE',  ( 1.000000000000000000, 0.000000000000000000, 0.000000000000000000 ) ) ;
#801 = CARTESIAN_POINT ( 'NONE',  ( 2.200000000000000178, 3.429011037612588783E-16, 2.799999999999999822 ) ) ;
#802 = VERTEX_POINT ( 'NONE', #258 ) ;
#803 = AXIS2_PLACEMENT_3D ( 'NONE', #787, #800, #593 ) ;
#804 = PRESENTATION_LAYER_ASSIGNMENT (  '', '', ( #1295 ) ) ;
#805 = COLOUR_RGB ( '',0.7764705882352941346, 0.7568627450980391913, 0.7372549019607843590 ) ;
#806 = CARTESIAN_POINT ( 'NONE',  ( -1.229837387624883815, 0.000000000000000000, 0.000000000000000000 ) ) ;
#807 = DIRECTION ( 'NONE',  ( 0.000000000000000000, 0.000000000000000000, -1.000000000000000000 ) ) ;
#808 = DIRECTION ( 'NONE',  ( 1.000000000000000000, 0.000000000000000000, 0.000000000000000000 ) ) ;
#809 = ADVANCED_FACE ( 'NONE', ( #338, #265 ), #472, .T. ) ;
#810 = DIRECTION ( 'NONE',  ( 0.000000000000000000, 0.000000000000000000, 1.000000000000000000 ) ) ;
#811 = AXIS2_PLACEMENT_3D ( 'NONE', #414, #725, #843 ) ;
#812 = ORIENTED_EDGE ( 'NONE', *, *, #592, .F. ) ;
#813 = CIRCLE ( 'NONE', #1186, 2.500000000000000000 ) ;
#814 = CARTESIAN_POINT ( 'NONE',  ( 0.000000000000000000, 0.000000000000000000, 5.250000000000000000 ) ) ;
#815 = ITEM_DEFINED_TRANSFORMATION ( 'NONE', 'NONE', #127,  #90 ) ;
#816 = CARTESIAN_POINT ( 'NONE',  ( -20.63749999999999929, 0.000000000000000000, 0.000000000000000000 ) ) ;
#817 = DIRECTION ( 'NONE',  ( 0.000000000000000000, 1.000000000000000000, -1.224646799147353207E-16 ) ) ;
#818 = CIRCLE ( 'NONE', #30, 0.3000000000000016542 ) ;
#819 = ORIENTED_EDGE ( 'NONE', *, *, #1293, .F. ) ;
#820 =( LENGTH_UNIT ( ) NAMED_UNIT ( * ) SI_UNIT ( .MILLI., .METRE. ) );
#821 = CARTESIAN_POINT ( 'NONE',  ( 0.000000000000000000, 0.000000000000000000, 0.000000000000000000 ) ) ;
#822 = AXIS2_PLACEMENT_3D ( 'NONE', #751, #740, #1141 ) ;
#823 = UNCERTAINTY_MEASURE_WITH_UNIT (LENGTH_MEASURE( 1.000000000000000082E-05 ), #411, 'distance_accuracy_value', 'NONE');
#824 = FACE_OUTER_BOUND ( 'NONE', #328, .T. ) ;
#825 = CARTESIAN_POINT ( 'NONE',  ( 2.200000000000000178, 0.000000000000000000, -2.799999999999999822 ) ) ;
#826 = VERTEX_POINT ( 'NONE', #649 ) ;
#827 = EDGE_CURVE ( 'NONE', #373, #1229, #190, .T. ) ;
#828 = AXIS2_PLACEMENT_3D ( 'NONE', #821, #316, #1114 ) ;
#829 = DIRECTION ( 'NONE',  ( 0.000000000000000000, 0.000000000000000000, -1.000000000000000000 ) ) ;
#830 = AXIS2_PLACEMENT_3D ( 'NONE', #1234, #618, #1020 ) ;
#831 = CARTESIAN_POINT ( 'NONE',  ( 2.499999999999998668, 0.000000000000000000, 0.000000000000000000 ) ) ;
#832 = CARTESIAN_POINT ( 'NONE',  ( -2.200000000000000178, 0.000000000000000000, 0.000000000000000000 ) ) ;
#833 = ORIENTED_EDGE ( 'NONE', *, *, #834, .F. ) ;
#834 = EDGE_CURVE ( 'NONE', #231, #410, #129, .T. ) ;
#835 = ORIENTED_EDGE ( 'NONE', *, *, #1119, .T. ) ;
#836 = TOROIDAL_SURFACE ( 'NONE', #488, 7.700000000000005507, 0.3000000000000007661 ) ;
#837 = CIRCLE ( 'NONE', #1230, 6.350000000000004974 ) ;
#838 = ADVANCED_FACE ( 'NONE', ( #445 ), #354, .T. ) ;
#839 = DIRECTION ( 'NONE',  ( 1.000000000000000000, 0.000000000000000000, 0.000000000000000000 ) ) ;
#840 = DIRECTION ( 'NONE',  ( 0.7071067811865466846, 8.659560562354922997E-17, -0.7071067811865483499 ) ) ;
#841 = VERTEX_POINT ( 'NONE', #289 ) ;
#842 = EDGE_LOOP ( 'NONE', ( #971, #634, #495, #130 ) ) ;
#843 = DIRECTION ( 'NONE',  ( 0.000000000000000000, 0.000000000000000000, -1.000000000000000000 ) ) ;
#844 = CYLINDRICAL_SURFACE ( 'NONE', #1057, 8.000000000000007105 ) ;
#845 = ORIENTED_EDGE ( 'NONE', *, *, #394, .F. ) ;
#846 = EDGE_CURVE ( 'NONE', #1285, #841, #1035, .T. ) ;
#847 = CIRCLE ( 'NONE', #186, 2.500000000000000000 ) ;
#848 = DIRECTION ( 'NONE',  ( 0.000000000000000000, -1.224646799147353454E-16, 1.000000000000000000 ) ) ;
#849 = ORIENTED_EDGE ( 'NONE', *, *, #273, .F. ) ;
#850 = CARTESIAN_POINT ( 'NONE',  ( -1.229837387624880707, 0.000000000000000000, 6.350000000000004974 ) ) ;
#851 = FACE_BOUND ( 'NONE', #1286, .T. ) ;
#852 = ADVANCED_FACE ( 'NONE', ( #371, #778 ), #1094, .T. ) ;
#853 = ORIENTED_EDGE ( 'NONE', *, *, #345, .T. ) ;
#854 = CARTESIAN_POINT ( 'NONE',  ( -2.200000000000000178, 3.429011037612588783E-16, 2.799999999999999822 ) ) ;
#855 = VERTEX_POINT ( 'NONE', #1180 ) ;
#856 = FACE_OUTER_BOUND ( 'NONE', #575, .T. ) ;
#857 = ORIENTED_EDGE ( 'NONE', *, *, #157, .F. ) ;
#858 = AXIS2_PLACEMENT_3D ( 'NONE', #260, #669, #1195 ) ;
#859 = DIRECTION ( 'NONE',  ( 1.000000000000000000, 0.000000000000000000, 0.000000000000000000 ) ) ;
#860 = SURFACE_SIDE_STYLE ('',( #1063 ) ) ;
#861 = DIRECTION ( 'NONE',  ( 1.000000000000000000, 0.000000000000000000, 0.000000000000000000 ) ) ;
#862 =( LENGTH_UNIT ( ) NAMED_UNIT ( * ) SI_UNIT ( .MILLI., .METRE. ) );
#863 = ORIENTED_EDGE ( 'NONE', *, *, #1004, .T. ) ;
#864 = EDGE_CURVE ( 'NONE', #826, #359, #701, .T. ) ;
#865 = DIRECTION ( 'NONE',  ( 0.000000000000000000, 1.224646799147351482E-16, 1.000000000000000000 ) ) ;
#866 = CARTESIAN_POINT ( 'NONE',  ( -2.200000000000000178, 0.000000000000000000, -2.799999999999999822 ) ) ;
#867 = AXIS2_PLACEMENT_3D ( 'NONE', #480, #1282, #390 ) ;
#868 =( GEOMETRIC_REPRESENTATION_CONTEXT ( 3 ) GLOBAL_UNCERTAINTY_ASSIGNED_CONTEXT ( ( #284 ) ) GLOBAL_UNIT_ASSIGNED_CONTEXT ( ( #9, #1036, #928 ) ) REPRESENTATION_CONTEXT ( 'NONE', 'WORKASPACE' ) );
#869 = FILL_AREA_STYLE ('',( #1182 ) ) ;
#870 = VERTEX_POINT ( 'NONE', #1289 ) ;
#871 = ADVANCED_FACE ( 'NONE', ( #1303 ), #379, .T. ) ;
#872 = ORIENTED_EDGE ( 'NONE', *, *, #276, .F. ) ;
#873 = CIRCLE ( 'NONE', #1206, 4.149999999999998579 ) ;
#874 = ADVANCED_FACE ( 'NONE', ( #199 ), #1015, .T. ) ;
#875 = CARTESIAN_POINT ( 'NONE',  ( 0.000000000000000000, 0.000000000000000000, 0.000000000000000000 ) ) ;
#876 = FACE_OUTER_BOUND ( 'NONE', #910, .T. ) ;
#877 = CONICAL_SURFACE ( 'NONE', #49, 9.799999999999995381, 0.7853981633974471688 ) ;
#878 = AXIS2_PLACEMENT_3D ( 'NONE', #713, #922, #930 ) ;
#879 = DIRECTION ( 'NONE',  ( -1.000000000000000000, 0.000000000000000000, 0.000000000000000000 ) ) ;
#880 = VERTEX_POINT ( 'NONE', #906 ) ;
#881 = EDGE_LOOP ( 'NONE', ( #524, #27, #646, #350 ) ) ;
#882 = ORIENTED_EDGE ( 'NONE', *, *, #433, .T. ) ;
#883 = DIRECTION ( 'NONE',  ( 0.000000000000000000, 0.000000000000000000, 1.000000000000000000 ) ) ;
#884 = FACE_OUTER_BOUND ( 'NONE', #1087, .T. ) ;
#885 = CARTESIAN_POINT ( 'NONE',  ( -2.199999999999999734, 0.000000000000000000, 0.000000000000000000 ) ) ;
#886 = ORIENTED_EDGE ( 'NONE', *, *, #259, .F. ) ;
#887 = PRODUCT ( '3d printer roller', '3d printer roller', '', ( #32 ) ) ;
#888 = EDGE_LOOP ( 'NONE', ( #470, #191 ) ) ;
#889 = CIRCLE ( 'NONE', #1283, 7.700000000000005507 ) ;
#890 = ORIENTED_EDGE ( 'NONE', *, *, #332, .T. ) ;
#891 = FACE_OUTER_BOUND ( 'NONE', #475, .T. ) ;
#892 = EDGE_CURVE ( 'NONE', #536, #1294, #915, .T. ) ;
#893 = DIRECTION ( 'NONE',  ( -0.000000000000000000, -0.000000000000000000, 1.000000000000000000 ) ) ;
#894 =( NAMED_UNIT ( * ) SI_UNIT ( $, .STERADIAN. ) SOLID_ANGLE_UNIT ( ) );
#895 = PRODUCT_DEFINITION_FORMATION_WITH_SPECIFIED_SOURCE ( 'ANY', '', #263, .NOT_KNOWN. ) ;
#896 = EDGE_CURVE ( 'NONE', #802, #898, #333, .T. ) ;
#897 = ORIENTED_EDGE ( 'NONE', *, *, #790, .T. ) ;
#898 = VERTEX_POINT ( 'NONE', #85 ) ;
#899 = VECTOR ( 'NONE', #516, 1000.000000000000000 ) ;
#900 = DIRECTION ( 'NONE',  ( 0.000000000000000000, 0.000000000000000000, 1.000000000000000000 ) ) ;
#901 = CARTESIAN_POINT ( 'NONE',  ( -2.200000000000000622, 0.000000000000000000, 0.000000000000000000 ) ) ;
#902 = AXIS2_PLACEMENT_3D ( 'NONE', #854, #564, #865 ) ;
#903 = CYLINDRICAL_SURFACE ( 'NONE', #919, 2.499999999999999112 ) ;
#904 = ORIENTED_EDGE ( 'NONE', *, *, #635, .F. ) ;
#905 = DIRECTION ( 'NONE',  ( 0.000000000000000000, 0.000000000000000000, -1.000000000000000000 ) ) ;
#906 = CARTESIAN_POINT ( 'NONE',  ( -2.499999999999999556, 3.429011037612589276E-16, 2.799999999999999822 ) ) ;
#907 = UNCERTAINTY_MEASURE_WITH_UNIT (LENGTH_MEASURE( 1.000000000000000082E-05 ), #552, 'distance_accuracy_value', 'NONE');
#908 = DIRECTION ( 'NONE',  ( 1.000000000000000000, 0.000000000000000000, 0.000000000000000000 ) ) ;
#909 = TOROIDAL_SURFACE ( 'NONE', #220, 5.250000000000000000, 1.650000000000000355 ) ;
#910 = EDGE_LOOP ( 'NONE', ( #747, #541 ) ) ;
#911 = EDGE_CURVE ( 'NONE', #7, #281, #1156, .T. ) ;
#912 = DIRECTION ( 'NONE',  ( 0.000000000000000000, 0.000000000000000000, -1.000000000000000000 ) ) ;
#913 = DIRECTION ( 'NONE',  ( -1.000000000000000000, 0.000000000000000000, 0.000000000000000000 ) ) ;
#914 = EDGE_LOOP ( 'NONE', ( #223, #267 ) ) ;
#915 = CIRCLE ( 'NONE', #60, 8.000000000000007105 ) ;
#916 = DIRECTION ( 'NONE',  ( 1.000000000000000000, 0.000000000000000000, 0.000000000000000000 ) ) ;
#917 = FACE_OUTER_BOUND ( 'NONE', #625, .T. ) ;
#918 = CARTESIAN_POINT ( 'NONE',  ( 8.000000000000000000, 0.000000000000000000, 10.40000000000000036 ) ) ;
#919 = AXIS2_PLACEMENT_3D ( 'NONE', #816, #808, #1214 ) ;
#920 = ORIENTED_EDGE ( 'NONE', *, *, #84, .T. ) ;
#921 = CARTESIAN_POINT ( 'NONE',  ( -20.63749999999999574, 0.000000000000000000, 0.000000000000000000 ) ) ;
#922 = DIRECTION ( 'NONE',  ( -0.000000000000000000, -0.000000000000000000, -1.000000000000000000 ) ) ;
#923 = LINE ( 'NONE', #409, #1179 ) ;
#924 = EDGE_CURVE ( 'NONE', #536, #169, #795, .T. ) ;
#925 = ORIENTED_EDGE ( 'NONE', *, *, #497, .T. ) ;
#926 =( NAMED_UNIT ( * ) PLANE_ANGLE_UNIT ( ) SI_UNIT ( $, .RADIAN. ) );
#927 = DIRECTION ( 'NONE',  ( 0.000000000000000000, 0.000000000000000000, -1.000000000000000000 ) ) ;
#928 =( NAMED_UNIT ( * ) SI_UNIT ( $, .STERADIAN. ) SOLID_ANGLE_UNIT ( ) );
#929 = EDGE_CURVE ( 'NONE', #997, #57, #1188, .T. ) ;
#930 = DIRECTION ( 'NONE',  ( -1.000000000000000000, 0.000000000000000000, 0.000000000000000000 ) ) ;
#931 = DIRECTION ( 'NONE',  ( -0.000000000000000000, -0.000000000000000000, -1.000000000000000000 ) ) ;
#932 = ORIENTED_EDGE ( 'NONE', *, *, #394, .T. ) ;
#933 = EDGE_CURVE ( 'NONE', #855, #870, #421, .T. ) ;
#934 = AXIS2_PLACEMENT_3D ( 'NONE', #875, #1271, #264 ) ;
#935 = AXIS2_PLACEMENT_3D ( 'NONE', #145, #544, #954 ) ;
#936 = DIRECTION ( 'NONE',  ( 0.000000000000000000, 0.000000000000000000, -1.000000000000000000 ) ) ;
#937 = PLANE ( 'NONE',  #42 ) ;
#938 = VERTEX_POINT ( 'NONE', #985 ) ;
#939 = STYLED_ITEM ( 'NONE', ( #999 ), #545 ) ;
#940 = AXIS2_PLACEMENT_3D ( 'NONE', #24, #514, #429 ) ;
#941 = CIRCLE ( 'NONE', #708, 12.00000000000000533 ) ;
#942 = CYLINDRICAL_SURFACE ( 'NONE', #878, 2.500000000000000000 ) ;
#943 = CARTESIAN_POINT ( 'NONE',  ( -20.63749999999999929, 0.000000000000000000, 0.000000000000000000 ) ) ;
#944 = EDGE_LOOP ( 'NONE', ( #672, #340, #932, #242 ) ) ;
#945 = EDGE_CURVE ( 'NONE', #841, #1285, #351, .T. ) ;
#946 = DIRECTION ( 'NONE',  ( -0.000000000000000000, 1.000000000000000000, 1.224646799147353207E-16 ) ) ;
#947 = ORIENTED_EDGE ( 'NONE', *, *, #1105, .F. ) ;
#948 = CARTESIAN_POINT ( 'NONE',  ( 2.500000000000002220, 0.000000000000000000, 0.000000000000000000 ) ) ;
#949 = AXIS2_PLACEMENT_3D ( 'NONE', #451, #446, #140 ) ;
#950 = DIRECTION ( 'NONE',  ( 0.000000000000000000, 0.000000000000000000, -1.000000000000000000 ) ) ;
#951 = ORIENTED_EDGE ( 'NONE', *, *, #308, .T. ) ;
#952 = CIRCLE ( 'NONE', #934, 9.799999999999997158 ) ;
#953 = CARTESIAN_POINT ( 'NONE',  ( -20.63749999999999929, 5.082284216461514170E-16, 4.149999999999999467 ) ) ;
#954 = DIRECTION ( 'NONE',  ( 0.000000000000000000, -1.224646799147353454E-16, 1.000000000000000000 ) ) ;
#955 = DIRECTION ( 'NONE',  ( 0.000000000000000000, 0.000000000000000000, -1.000000000000000000 ) ) ;
#956 = TOROIDAL_SURFACE ( 'NONE', #312, 2.799999999999999822, 0.3000000000000001554 ) ;
#957 = EDGE_LOOP ( 'NONE', ( #774, #508 ) ) ;
#958 = AXIS2_PLACEMENT_3D ( 'NONE', #479, #1307, #905 ) ;
#959 = CARTESIAN_POINT ( 'NONE',  ( 0.000000000000000000, 0.000000000000000000, 10.40000000000000036 ) ) ;
#960 = DIRECTION ( 'NONE',  ( 1.000000000000000000, 0.000000000000000000, 0.000000000000000000 ) ) ;
#961 = CARTESIAN_POINT ( 'NONE',  ( 0.000000000000000000, 0.000000000000000000, 10.40000000000000036 ) ) ;
#962 = CARTESIAN_POINT ( 'NONE',  ( -1.229837387624883815, 0.000000000000000000, 0.000000000000000000 ) ) ;
#963 = ORIENTED_EDGE ( 'NONE', *, *, #924, .F. ) ;
#964 = EDGE_CURVE ( 'NONE', #938, #1235, #193, .T. ) ;
#965 = CIRCLE ( 'NONE', #1255, 8.000000000000000000 ) ;
#966 = DIRECTION ( 'NONE',  ( 1.000000000000000000, 0.000000000000000000, 0.000000000000000000 ) ) ;
#967 = ADVANCED_FACE ( 'NONE', ( #96 ), #782, .T. ) ;
#968 =( NAMED_UNIT ( * ) PLANE_ANGLE_UNIT ( ) SI_UNIT ( $, .RADIAN. ) );
#969 = VERTEX_POINT ( 'NONE', #271 ) ;
#970 = PRODUCT_RELATED_PRODUCT_CATEGORY ( 'part', '', ( #263 ) ) ;
#971 = ORIENTED_EDGE ( 'NONE', *, *, #695, .F. ) ;
#972 = FACE_BOUND ( 'NONE', #914, .T. ) ;
#973 = CARTESIAN_POINT ( 'NONE',  ( -2.499999999999998668, 0.000000000000000000, 0.000000000000000000 ) ) ;
#974 = AXIS2_PLACEMENT_3D ( 'NONE', #179, #705, #1205 ) ;
#975 = ORIENTED_EDGE ( 'NONE', *, *, #79, .F. ) ;
#976 =( GEOMETRIC_REPRESENTATION_CONTEXT ( 3 ) GLOBAL_UNCERTAINTY_ASSIGNED_CONTEXT ( ( #907 ) ) GLOBAL_UNIT_ASSIGNED_CONTEXT ( ( #552, #161, #1159 ) ) REPRESENTATION_CONTEXT ( 'NONE', 'WORKASPACE' ) );
#977 = ORIENTED_EDGE ( 'NONE', *, *, #933, .T. ) ;
#978 = CARTESIAN_POINT ( 'NONE',  ( -20.63749999999999574, 7.776507174585699066E-16, 6.350000000000004974 ) ) ;
#979 = FACE_OUTER_BOUND ( 'NONE', #217, .T. ) ;
#980 = ORIENTED_EDGE ( 'NONE', *, *, #1176, .T. ) ;
#981 = ORIENTED_EDGE ( 'NONE', *, *, #846, .T. ) ;
#982 = EDGE_LOOP ( 'NONE', ( #1145, #307, #435, #455 ) ) ;
#983 = ADVANCED_FACE ( 'NONE', ( #1083 ), #396, .T. ) ;
#984 = CARTESIAN_POINT ( 'NONE',  ( -2.499999999999998668, 0.000000000000000000, 0.000000000000000000 ) ) ;
#985 = CARTESIAN_POINT ( 'NONE',  ( -2.500000000000000000, 0.000000000000000000, 5.399999999999999467 ) ) ;
#986 = EDGE_CURVE ( 'NONE', #1058, #880, #614, .T. ) ;
#987 = DIRECTION ( 'NONE',  ( 1.000000000000000000, 0.000000000000000000, 0.000000000000000000 ) ) ;
#988 = ORIENTED_EDGE ( 'NONE', *, *, #1101, .T. ) ;
#989 = CIRCLE ( 'NONE', #322, 2.799999999999999822 ) ;
#990 = ORIENTED_EDGE ( 'NONE', *, *, #308, .F. ) ;
#991 = LINE ( 'NONE', #95, #382 ) ;
#992 = DIRECTION ( 'NONE',  ( 1.000000000000000000, 0.000000000000000000, 0.000000000000000000 ) ) ;
#993 = CYLINDRICAL_SURFACE ( 'NONE', #572, 8.000000000000000000 ) ;
#994 = VECTOR ( 'NONE', #1220, 1000.000000000000000 ) ;
#995 = DIRECTION ( 'NONE',  ( 0.000000000000000000, 0.000000000000000000, -1.000000000000000000 ) ) ;
#996 = VERTEX_POINT ( 'NONE', #1120 ) ;
#997 = VERTEX_POINT ( 'NONE', #711 ) ;
#998 = TOROIDAL_SURFACE ( 'NONE', #87, 2.799999999999999822, 0.3000000000000001554 ) ;
#999 = PRESENTATION_STYLE_ASSIGNMENT (( #591 ) ) ;
#1000 = CARTESIAN_POINT ( 'NONE',  ( -2.500000000000000000, 0.000000000000000000, 10.40000000000000036 ) ) ;
#1001 = DIRECTION ( 'NONE',  ( 1.000000000000000000, 0.000000000000000000, 0.000000000000000000 ) ) ;
#1002 = AXIS2_PLACEMENT_3D ( 'NONE', #117, #233, #38 ) ;
#1003 = PLANE ( 'NONE',  #474 ) ;
#1004 = EDGE_CURVE ( 'NONE', #997, #683, #41, .T. ) ;
#1005 = DIRECTION ( 'NONE',  ( -1.000000000000000000, -0.000000000000000000, -0.000000000000000000 ) ) ;
#1006 = DIRECTION ( 'NONE',  ( -0.000000000000000000, -0.000000000000000000, 1.000000000000000000 ) ) ;
#1007 = CARTESIAN_POINT ( 'NONE',  ( 2.499999999999999556, 0.000000000000000000, -2.799999999999999822 ) ) ;
#1008 = EDGE_CURVE ( 'NONE', #1184, #1079, #1224, .T. ) ;
#1009 = DIRECTION ( 'NONE',  ( 0.000000000000000000, 0.000000000000000000, 1.000000000000000000 ) ) ;
#1010 = SURFACE_SIDE_STYLE ('',( #605 ) ) ;
#1011 = DIRECTION ( 'NONE',  ( 0.000000000000000000, 0.000000000000000000, -1.000000000000000000 ) ) ;
#1012 = DIRECTION ( 'NONE',  ( 0.000000000000000000, 0.000000000000000000, -1.000000000000000000 ) ) ;
#1013 = CYLINDRICAL_SURFACE ( 'NONE', #611, 8.000000000000000000 ) ;
#1014 = ORIENTED_EDGE ( 'NONE', *, *, #640, .F. ) ;
#1015 = CONICAL_SURFACE ( 'NONE', #442, 12.00000000000000533, 0.7853981633974498333 ) ;
#1016 = CARTESIAN_POINT ( 'NONE',  ( -2.499999999999998668, 0.000000000000000000, 0.000000000000000000 ) ) ;
#1017 = UNCERTAINTY_MEASURE_WITH_UNIT (LENGTH_MEASURE( 1.000000000000000082E-05 ), #738, 'distance_accuracy_value', 'NONE');
#1018 = CONTEXT_DEPENDENT_SHAPE_REPRESENTATION ( #537, #752 ) ;
#1019 = FACE_BOUND ( 'NONE', #53, .T. ) ;
#1020 = DIRECTION ( 'NONE',  ( 0.000000000000000000, 0.000000000000000000, -1.000000000000000000 ) ) ;
#1021 = ORIENTED_EDGE ( 'NONE', *, *, #494, .F. ) ;
#1022 = EDGE_CURVE ( 'NONE', #1163, #657, #1201, .T. ) ;
#1023 = DIRECTION ( 'NONE',  ( -1.000000000000000000, 0.000000000000000000, 0.000000000000000000 ) ) ;
#1024 = DIRECTION ( 'NONE',  ( 0.000000000000000000, 0.000000000000000000, -1.000000000000000000 ) ) ;
#1025 = FACE_OUTER_BOUND ( 'NONE', #1238, .T. ) ;
#1026 = ADVANCED_FACE ( 'NONE', ( #419 ), #114, .F. ) ;
#1027 = CIRCLE ( 'NONE', #496, 4.149999999999998579 ) ;
#1028 = VERTEX_POINT ( 'NONE', #518 ) ;
#1029 = SHAPE_DEFINITION_REPRESENTATION ( #1164, #99 ) ;
#1030 = CARTESIAN_POINT ( 'NONE',  ( 8.000000000000000000, 9.797174393178825657E-16, 5.000000000000000000 ) ) ;
#1031 = CARTESIAN_POINT ( 'NONE',  ( 1.229837387624883815, 0.000000000000000000, 0.000000000000000000 ) ) ;
#1032 = EDGE_LOOP ( 'NONE', ( #314, #569, #1171, #1269 ) ) ;
#1033 = CIRCLE ( 'NONE', #698, 1.650000000000000355 ) ;
#1034 = MECHANICAL_DESIGN_GEOMETRIC_PRESENTATION_REPRESENTATION (  '', ( #1295 ), #188 ) ;
#1035 = CIRCLE ( 'NONE', #462, 6.350000000000004974 ) ;
#1036 =( NAMED_UNIT ( * ) PLANE_ANGLE_UNIT ( ) SI_UNIT ( $, .RADIAN. ) );
#1037 = VERTEX_POINT ( 'NONE', #1 ) ;
#1038 = CYLINDRICAL_SURFACE ( 'NONE', #29, 4.149999999999999467 ) ;
#1039 = DIRECTION ( 'NONE',  ( 0.000000000000000000, 0.000000000000000000, -1.000000000000000000 ) ) ;
#1040 = ORIENTED_EDGE ( 'NONE', *, *, #1096, .T. ) ;
#1041 = CONICAL_SURFACE ( 'NONE', #168, 12.00000000000000533, 0.7853981633974498333 ) ;
#1042 = MECHANICAL_DESIGN_GEOMETRIC_PRESENTATION_REPRESENTATION (  '', ( #939 ), #360 ) ;
#1043 = EDGE_CURVE ( 'NONE', #996, #898, #1033, .T. ) ;
#1044 = AXIS2_PLACEMENT_3D ( 'NONE', #948, #310, #440 ) ;
#1045 = APPLICATION_PROTOCOL_DEFINITION ( 'draft international standard', 'automotive_design', 1998, #134 ) ;
#1046 = DIRECTION ( 'NONE',  ( -1.000000000000000000, 0.000000000000000000, 0.000000000000000000 ) ) ;
#1047 = DIRECTION ( 'NONE',  ( 0.000000000000000000, 0.000000000000000000, 1.000000000000000000 ) ) ;
#1048 = VERTEX_POINT ( 'NONE', #303 ) ;
#1049 = CIRCLE ( 'NONE', #138, 2.499999999999999556 ) ;
#1050 = FACE_OUTER_BOUND ( 'NONE', #881, .T. ) ;
#1051 = DIRECTION ( 'NONE',  ( 0.000000000000000000, 0.000000000000000000, -1.000000000000000000 ) ) ;
#1052 = CIRCLE ( 'NONE', #1218, 9.799999999999995381 ) ;
#1053 = CARTESIAN_POINT ( 'NONE',  ( 0.000000000000000000, 0.000000000000000000, 10.40000000000000036 ) ) ;
#1054 = ORIENTED_EDGE ( 'NONE', *, *, #433, .F. ) ;
#1055 = EDGE_CURVE ( 'NONE', #898, #855, #309, .T. ) ;
#1056 = DIRECTION ( 'NONE',  ( -1.000000000000000000, 0.000000000000000000, 0.000000000000000000 ) ) ;
#1057 = AXIS2_PLACEMENT_3D ( 'NONE', #1259, #1147, #1246 ) ;
#1058 = VERTEX_POINT ( 'NONE', #512 ) ;
#1059 = PRODUCT_DEFINITION_SHAPE ( 'NONE', 'NONE',  #1312 ) ;
#1060 = CIRCLE ( 'NONE', #620, 2.500000000000000000 ) ;
#1061 = EDGE_CURVE ( 'NONE', #466, #1028, #756, .T. ) ;
#1062 = CARTESIAN_POINT ( 'NONE',  ( 12.00000000000000533, 1.469576158976824539E-15, 8.199999999999985079 ) ) ;
#1063 = SURFACE_STYLE_FILL_AREA ( #342 ) ;
#1064 = PRODUCT_DEFINITION ( 'UNKNOWN', '', #895, #513 ) ;
#1065 = LINE ( 'NONE', #1169, #54 ) ;
#1066 = EDGE_LOOP ( 'NONE', ( #886, #715, #120, #1148 ) ) ;
#1067 = ORIENTED_EDGE ( 'NONE', *, *, #746, .F. ) ;
#1068 = AXIS2_PLACEMENT_3D ( 'NONE', #885, #1284, #1267 ) ;
#1069 = CARTESIAN_POINT ( 'NONE',  ( 12.00000000000000533, 1.469576158976824539E-15, 2.200000000000000622 ) ) ;
#1070 = DIRECTION ( 'NONE',  ( 0.000000000000000000, 0.000000000000000000, -1.000000000000000000 ) ) ;
#1071 = CARTESIAN_POINT ( 'NONE',  ( 2.500000000000002220, 0.000000000000000000, -7.700000000000005507 ) ) ;
#1072 = VERTEX_POINT ( 'NONE', #212 ) ;
#1073 = ORIENTED_EDGE ( 'NONE', *, *, #896, .F. ) ;
#1074 = DIRECTION ( 'NONE',  ( -1.000000000000000000, 0.000000000000000000, 0.000000000000000000 ) ) ;
#1075 = PRESENTATION_STYLE_ASSIGNMENT (( #347 ) ) ;
#1076 = VECTOR ( 'NONE', #1006, 1000.000000000000000 ) ;
#1077 = ORIENTED_EDGE ( 'NONE', *, *, #1096, .F. ) ;
#1078 = CYLINDRICAL_SURFACE ( 'NONE', #431, 6.350000000000004974 ) ;
#1079 = VERTEX_POINT ( 'NONE', #1069 ) ;
#1080 = ADVANCED_FACE ( 'NONE', ( #61 ), #632, .T. ) ;
#1081 = CIRCLE ( 'NONE', #131, 12.00000000000000533 ) ;
#1082 = CONTEXT_DEPENDENT_SHAPE_REPRESENTATION ( #578, #1059 ) ;
#1083 = FACE_OUTER_BOUND ( 'NONE', #246, .T. ) ;
#1084 = LINE ( 'NONE', #789, #1194 ) ;
#1085 = ORIENTED_EDGE ( 'NONE', *, *, #846, .F. ) ;
#1086 = FACE_BOUND ( 'NONE', #58, .T. ) ;
#1087 = EDGE_LOOP ( 'NONE', ( #184, #691, #75, #857 ) ) ;
#1088 = CARTESIAN_POINT ( 'NONE',  ( 0.000000000000000000, 0.000000000000000000, 0.000000000000000000 ) ) ;
#1089 = CARTESIAN_POINT ( 'NONE',  ( 2.199999999999999734, 0.000000000000000000, 0.000000000000000000 ) ) ;
#1090 = DIRECTION ( 'NONE',  ( 1.000000000000000000, 0.000000000000000000, 0.000000000000000000 ) ) ;
#1091 = VERTEX_POINT ( 'NONE', #50 ) ;
#1092 = ORIENTED_EDGE ( 'NONE', *, *, #157, .T. ) ;
#1093 = SURFACE_STYLE_FILL_AREA ( #794 ) ;
#1094 = PLANE ( 'NONE',  #974 ) ;
#1095 = DIRECTION ( 'NONE',  ( -0.000000000000000000, -0.000000000000000000, -1.000000000000000000 ) ) ;
#1096 = EDGE_CURVE ( 'NONE', #996, #7, #238, .T. ) ;
#1097 = TOROIDAL_SURFACE ( 'NONE', #522, 5.250000000000000000, 1.650000000000000355 ) ;
#1098 = VERTEX_POINT ( 'NONE', #659 ) ;
#1099 = MECHANICAL_DESIGN_GEOMETRIC_PRESENTATION_REPRESENTATION (  '', ( #425 ), #976 ) ;
#1100 = CARTESIAN_POINT ( 'NONE',  ( 0.000000000000000000, 0.000000000000000000, 0.000000000000000000 ) ) ;
#1101 = EDGE_CURVE ( 'NONE', #938, #684, #847, .T. ) ;
#1102 = DIRECTION ( 'NONE',  ( -0.000000000000000000, -0.000000000000000000, -1.000000000000000000 ) ) ;
#1103 = DIRECTION ( 'NONE',  ( 0.000000000000000000, 0.000000000000000000, -1.000000000000000000 ) ) ;
#1104 = AXIS2_PLACEMENT_3D ( 'NONE', #636, #132, #10 ) ;
#1105 = EDGE_CURVE ( 'NONE', #1037, #1091, #952, .T. ) ;
#1106 = VERTEX_POINT ( 'NONE', #1158 ) ;
#1107 = VECTOR ( 'NONE', #415, 1000.000000000000000 ) ;
#1108 =( NAMED_UNIT ( * ) SI_UNIT ( $, .STERADIAN. ) SOLID_ANGLE_UNIT ( ) );
#1109 = CARTESIAN_POINT ( 'NONE',  ( 0.000000000000000000, 0.000000000000000000, 10.40000000000000036 ) ) ;
#1110 = DIRECTION ( 'NONE',  ( 0.000000000000000000, 0.000000000000000000, -1.000000000000000000 ) ) ;
#1111 = EDGE_LOOP ( 'NONE', ( #1085, #897, #775, #619 ) ) ;
#1112 = COLOUR_RGB ( '',0.2980392156862745057, 0.2980392156862745057, 0.2980392156862745057 ) ;
#1113 = FILL_AREA_STYLE_COLOUR ( '', #553 ) ;
#1114 = DIRECTION ( 'NONE',  ( -1.000000000000000000, 0.000000000000000000, 0.000000000000000000 ) ) ;
#1115 = DIRECTION ( 'NONE',  ( -0.000000000000000000, -0.000000000000000000, 1.000000000000000000 ) ) ;
#1116 = DIRECTION ( 'NONE',  ( 1.000000000000000000, 0.000000000000000000, 0.000000000000000000 ) ) ;
#1117 = ADVANCED_FACE ( 'NONE', ( #44 ), #1097, .T. ) ;
#1118 = ORIENTED_EDGE ( 'NONE', *, *, #452, .T. ) ;
#1119 = EDGE_CURVE ( 'NONE', #529, #367, #457, .T. ) ;
#1120 = CARTESIAN_POINT ( 'NONE',  ( 1.229837387624883815, 0.000000000000000000, 4.149999999999999467 ) ) ;
#1121 = PRESENTATION_STYLE_ASSIGNMENT (( #502 ) ) ;
#1122 = DIRECTION ( 'NONE',  ( 1.000000000000000000, 0.000000000000000000, 0.000000000000000000 ) ) ;
#1123 = DIRECTION ( 'NONE',  ( 1.000000000000000000, 0.000000000000000000, 0.000000000000000000 ) ) ;
#1124 =( GEOMETRIC_REPRESENTATION_CONTEXT ( 3 ) GLOBAL_UNCERTAINTY_ASSIGNED_CONTEXT ( ( #1132 ) ) GLOBAL_UNIT_ASSIGNED_CONTEXT ( ( #820, #211, #1219 ) ) REPRESENTATION_CONTEXT ( 'NONE', 'WORKASPACE' ) );
#1125 = ORIENTED_EDGE ( 'NONE', *, *, #933, .F. ) ;
#1126 = DIRECTION ( 'NONE',  ( 0.000000000000000000, 0.000000000000000000, -1.000000000000000000 ) ) ;
#1127 = ORIENTED_EDGE ( 'NONE', *, *, #345, .F. ) ;
#1128 = DIRECTION ( 'NONE',  ( 0.000000000000000000, 0.000000000000000000, -1.000000000000000000 ) ) ;
#1129 = DIRECTION ( 'NONE',  ( 0.000000000000000000, 0.000000000000000000, 1.000000000000000000 ) ) ;
#1130 = VERTEX_POINT ( 'NONE', #1166 ) ;
#1131 = ORIENTED_EDGE ( 'NONE', *, *, #1105, .T. ) ;
#1132 = UNCERTAINTY_MEASURE_WITH_UNIT (LENGTH_MEASURE( 1.000000000000000082E-05 ), #820, 'distance_accuracy_value', 'NONE');
#1133 = SHAPE_REPRESENTATION_RELATIONSHIP ( 'NONE' , 'NONE' ,  #1277, #154 ) ;
#1134 = ORIENTED_EDGE ( 'NONE', *, *, #237, .F. ) ;
#1135 = DIRECTION ( 'NONE',  ( 1.000000000000000000, 0.000000000000000000, 0.000000000000000000 ) ) ;
#1136 = DIRECTION ( 'NONE',  ( 0.000000000000000000, 0.000000000000000000, -1.000000000000000000 ) ) ;
#1137 = EDGE_CURVE ( 'NONE', #1106, #281, #55, .T. ) ;
#1138 = VERTEX_POINT ( 'NONE', #37 ) ;
#1139 = APPLICATION_PROTOCOL_DEFINITION ( 'draft international standard', 'automotive_design', 1998, #398 ) ;
#1140 = FACE_OUTER_BOUND ( 'NONE', #135, .T. ) ;
#1141 = DIRECTION ( 'NONE',  ( 1.000000000000000000, 0.000000000000000000, 0.000000000000000000 ) ) ;
#1142 = ORIENTED_EDGE ( 'NONE', *, *, #510, .T. ) ;
#1143 = VECTOR ( 'NONE', #1200, 1000.000000000000000 ) ;
#1144 = DIRECTION ( 'NONE',  ( -1.000000000000000000, 0.000000000000000000, 0.000000000000000000 ) ) ;
#1145 = ORIENTED_EDGE ( 'NONE', *, *, #1197, .F. ) ;
#1146 = DIRECTION ( 'NONE',  ( 0.000000000000000000, 0.000000000000000000, -1.000000000000000000 ) ) ;
#1147 = DIRECTION ( 'NONE',  ( 1.000000000000000000, 0.000000000000000000, 0.000000000000000000 ) ) ;
#1148 = ORIENTED_EDGE ( 'NONE', *, *, #59, .F. ) ;
#1149 = EDGE_CURVE ( 'NONE', #529, #880, #722, .T. ) ;
#1150 = FILL_AREA_STYLE_COLOUR ( '', #805 ) ;
#1151 = MECHANICAL_DESIGN_GEOMETRIC_PRESENTATION_REPRESENTATION (  '', ( #243 ), #478 ) ;
#1152 = CYLINDRICAL_SURFACE ( 'NONE', #1291, 4.149999999999999467 ) ;
#1153 = ORIENTED_EDGE ( 'NONE', *, *, #1256, .T. ) ;
#1154 = ADVANCED_FACE ( 'NONE', ( #972, #335 ), #439, .F. ) ;
#1155 = AXIS2_PLACEMENT_3D ( 'NONE', #621, #107, #615 ) ;
#1156 = CIRCLE ( 'NONE', #1262, 4.149999999999998579 ) ;
#1157 = PRODUCT_DEFINITION ( 'UNKNOWN', '', #781, #102 ) ;
#1158 = CARTESIAN_POINT ( 'NONE',  ( 1.229837387624883815, 6.429395695523607111E-16, -4.149999999999999467 ) ) ;
#1159 =( NAMED_UNIT ( * ) SI_UNIT ( $, .STERADIAN. ) SOLID_ANGLE_UNIT ( ) );
#1160 = VECTOR ( 'NONE', #1167, 1000.000000000000000 ) ;
#1161 = FACE_OUTER_BOUND ( 'NONE', #366, .T. ) ;
#1162 = CARTESIAN_POINT ( 'NONE',  ( 2.200000000000000622, 0.000000000000000000, -2.499999999999998668 ) ) ;
#1163 = VERTEX_POINT ( 'NONE', #1172 ) ;
#1164 = PRODUCT_DEFINITION_SHAPE ( 'NONE', 'NONE',  #1157 ) ;
#1165 = CIRCLE ( 'NONE', #428, 6.350000000000004974 ) ;
#1166 = CARTESIAN_POINT ( 'NONE',  ( 2.500000000000002220, 9.613477373306729246E-16, 7.700000000000005507 ) ) ;
#1167 = DIRECTION ( 'NONE',  ( -0.000000000000000000, -0.000000000000000000, -1.000000000000000000 ) ) ;
#1168 = CLOSED_SHELL ( 'NONE', ( #352, #983, #43, #1026, #31, #1117, #177, #515, #1217, #473, #609, #448, #397, #198, #128, #852, #967, #1240, #162, #764, #1253, #724, #770, #685, #838, #250, #1213, #809 ) ) ;
#1169 = CARTESIAN_POINT ( 'NONE',  ( -20.63749999999999574, 0.000000000000000000, -6.350000000000004974 ) ) ;
#1170 = EDGE_LOOP ( 'NONE', ( #163, #482, #769, #40 ) ) ;
#1171 = ORIENTED_EDGE ( 'NONE', *, *, #896, .T. ) ;
#1172 = CARTESIAN_POINT ( 'NONE',  ( 8.000000000000000000, 9.797174393178825657E-16, 0.000000000000000000 ) ) ;
#1173 = DIRECTION ( 'NONE',  ( -0.000000000000000000, 0.000000000000000000, 1.000000000000000000 ) ) ;
#1174 = CARTESIAN_POINT ( 'NONE',  ( 0.000000000000000000, 0.000000000000000000, 10.40000000000000036 ) ) ;
#1175 = VERTEX_POINT ( 'NONE', #248 ) ;
#1176 = EDGE_CURVE ( 'NONE', #231, #576, #153, .T. ) ;
#1177 = ORIENTED_EDGE ( 'NONE', *, *, #164, .F. ) ;
#1178 = ORIENTED_EDGE ( 'NONE', *, *, #729, .T. ) ;
#1179 = VECTOR ( 'NONE', #931, 1000.000000000000000 ) ;
#1180 = CARTESIAN_POINT ( 'NONE',  ( 2.499999999999998668, 7.776507174585699066E-16, 6.350000000000004974 ) ) ;
#1181 = AXIS2_PLACEMENT_3D ( 'NONE', #172, #579, #927 ) ;
#1182 = FILL_AREA_STYLE_COLOUR ( '', #1112 ) ;
#1183 = ORIENTED_EDGE ( 'NONE', *, *, #630, .T. ) ;
#1184 = VERTEX_POINT ( 'NONE', #1062 ) ;
#1185 = ORIENTED_EDGE ( 'NONE', *, *, #653, .T. ) ;
#1186 = AXIS2_PLACEMENT_3D ( 'NONE', #346, #762, #137 ) ;
#1187 =( NAMED_UNIT ( * ) SI_UNIT ( $, .STERADIAN. ) SOLID_ANGLE_UNIT ( ) );
#1188 = LINE ( 'NONE', #187, #1076 ) ;
#1189 = DIRECTION ( 'NONE',  ( -0.000000000000000000, -0.000000000000000000, -1.000000000000000000 ) ) ;
#1190 = CARTESIAN_POINT ( 'NONE',  ( 0.000000000000000000, 0.000000000000000000, 10.40000000000000036 ) ) ;
#1191 = EDGE_LOOP ( 'NONE', ( #517, #665, #461, #1118 ) ) ;
#1192 = EDGE_CURVE ( 'NONE', #12, #1235, #813, .T. ) ;
#1193 = CARTESIAN_POINT ( 'NONE',  ( -20.63749999999999574, 0.000000000000000000, -8.000000000000007105 ) ) ;
#1194 = VECTOR ( 'NONE', #458, 1000.000000000000000 ) ;
#1195 = DIRECTION ( 'NONE',  ( 0.000000000000000000, 0.000000000000000000, -1.000000000000000000 ) ) ;
#1196 = CARTESIAN_POINT ( 'NONE',  ( 2.500000000000000000, 3.061616997868383141E-16, 5.000000000000000000 ) ) ;
#1197 = EDGE_CURVE ( 'NONE', #1106, #802, #661, .T. ) ;
#1198 = CARTESIAN_POINT ( 'NONE',  ( -2.499999999999998668, 0.000000000000000000, 0.000000000000000000 ) ) ;
#1199 = EDGE_CURVE ( 'NONE', #1235, #12, #1060, .T. ) ;
#1200 = DIRECTION ( 'NONE',  ( 0.7071067811865486830, 0.000000000000000000, 0.7071067811865464625 ) ) ;
#1201 = CIRCLE ( 'NONE', #828, 8.000000000000000000 ) ;
#1202 = EDGE_LOOP ( 'NONE', ( #183, #203, #1178, #1054 ) ) ;
#1203 = PRESENTATION_LAYER_ASSIGNMENT (  '', '', ( #425 ) ) ;
#1204 = DIRECTION ( 'NONE',  ( -1.000000000000000000, 0.000000000000000000, 0.000000000000000000 ) ) ;
#1205 = DIRECTION ( 'NONE',  ( 0.000000000000000000, 0.000000000000000000, -1.000000000000000000 ) ) ;
#1206 = AXIS2_PLACEMENT_3D ( 'NONE', #739, #1122, #1128 ) ;
#1207 = CARTESIAN_POINT ( 'NONE',  ( 2.500000000000002220, 0.000000000000000000, 0.000000000000000000 ) ) ;
#1208 = DIRECTION ( 'NONE',  ( 1.000000000000000000, 0.000000000000000000, 0.000000000000000000 ) ) ;
#1209 = EDGE_LOOP ( 'NONE', ( #438, #990 ) ) ;
#1210 = SHAPE_REPRESENTATION_RELATIONSHIP ( 'NONE' , 'NONE' ,  #15, #545 ) ;
#1211 = DIRECTION ( 'NONE',  ( 0.000000000000000000, -1.000000000000000000, 0.000000000000000000 ) ) ;
#1212 = CIRCLE ( 'NONE', #647, 0.3000000000000016542 ) ;
#1213 = ADVANCED_FACE ( 'NONE', ( #648 ), #836, .T. ) ;
#1214 = DIRECTION ( 'NONE',  ( 0.000000000000000000, 0.000000000000000000, -1.000000000000000000 ) ) ;
#1215 = DIRECTION ( 'NONE',  ( 0.000000000000000000, 1.224646799147352714E-16, 1.000000000000000000 ) ) ;
#1216 = EDGE_LOOP ( 'NONE', ( #417, #236, #925, #845 ) ) ;
#1217 = ADVANCED_FACE ( 'NONE', ( #1050 ), #642, .T. ) ;
#1218 = AXIS2_PLACEMENT_3D ( 'NONE', #166, #773, #987 ) ;
#1219 =( NAMED_UNIT ( * ) SI_UNIT ( $, .STERADIAN. ) SOLID_ANGLE_UNIT ( ) );
#1220 = DIRECTION ( 'NONE',  ( 1.000000000000000000, 0.000000000000000000, 0.000000000000000000 ) ) ;
#1221 = FACE_OUTER_BOUND ( 'NONE', #783, .T. ) ;
#1222 = FACE_OUTER_BOUND ( 'NONE', #1202, .T. ) ;
#1223 = ORIENTED_EDGE ( 'NONE', *, *, #389, .T. ) ;
#1224 = LINE ( 'NONE', #405, #207 ) ;
#1225 = DIRECTION ( 'NONE',  ( 0.000000000000000000, 0.000000000000000000, -1.000000000000000000 ) ) ;
#1226 = DIRECTION ( 'NONE',  ( 1.000000000000000000, 0.000000000000000000, 0.000000000000000000 ) ) ;
#1227 = CIRCLE ( 'NONE', #68, 4.149999999999998579 ) ;
#1228 = EDGE_LOOP ( 'NONE', ( #1092, #402, #269, #1279 ) ) ;
#1229 = VERTEX_POINT ( 'NONE', #654 ) ;
#1230 = AXIS2_PLACEMENT_3D ( 'NONE', #831, #839, #1225 ) ;
#1231 = EDGE_CURVE ( 'NONE', #1138, #469, #1227, .T. ) ;
#1232 =( NAMED_UNIT ( * ) SI_UNIT ( $, .STERADIAN. ) SOLID_ANGLE_UNIT ( ) );
#1233 = DIRECTION ( 'NONE',  ( -0.000000000000000000, -0.000000000000000000, -1.000000000000000000 ) ) ;
#1234 = CARTESIAN_POINT ( 'NONE',  ( -1.229837387624880707, 0.000000000000000000, 0.000000000000000000 ) ) ;
#1235 = VERTEX_POINT ( 'NONE', #76 ) ;
#1236 = CIRCLE ( 'NONE', #116, 8.000000000000000000 ) ;
#1237 = ADVANCED_FACE ( 'NONE', ( #491 ), #700, .F. ) ;
#1238 = EDGE_LOOP ( 'NONE', ( #1134, #947, #1142, #152 ) ) ;
#1239 = DIRECTION ( 'NONE',  ( 1.000000000000000000, 0.000000000000000000, 0.000000000000000000 ) ) ;
#1240 = ADVANCED_FACE ( 'NONE', ( #1288 ), #471, .F. ) ;
#1241 = CARTESIAN_POINT ( 'NONE',  ( -12.00000000000000533, 1.469576158976824539E-15, 2.200000000000000622 ) ) ;
#1242 = ORIENTED_EDGE ( 'NONE', *, *, #549, .F. ) ;
#1243 = CARTESIAN_POINT ( 'NONE',  ( 0.000000000000000000, 0.000000000000000000, 5.000000000000000000 ) ) ;
#1244 = ORIENTED_EDGE ( 'NONE', *, *, #256, .F. ) ;
#1245 = DIRECTION ( 'NONE',  ( 0.000000000000000000, 0.000000000000000000, -1.000000000000000000 ) ) ;
#1246 = DIRECTION ( 'NONE',  ( 0.000000000000000000, 0.000000000000000000, -1.000000000000000000 ) ) ;
#1247 = EDGE_LOOP ( 'NONE', ( #690, #1127 ) ) ;
#1248 = AXIS2_PLACEMENT_3D ( 'NONE', #103, #399, #602 ) ;
#1249 = CARTESIAN_POINT ( 'NONE',  ( -2.199999999999999734, 0.000000000000000000, 0.000000000000000000 ) ) ;
#1250 = ORIENTED_EDGE ( 'NONE', *, *, #259, .T. ) ;
#1251 = DIRECTION ( 'NONE',  ( 0.000000000000000000, 0.000000000000000000, -1.000000000000000000 ) ) ;
#1252 = DIRECTION ( 'NONE',  ( -0.000000000000000000, -0.000000000000000000, -1.000000000000000000 ) ) ;
#1253 = ADVANCED_FACE ( 'NONE', ( #178 ), #404, .T. ) ;
#1254 = ORIENTED_EDGE ( 'NONE', *, *, #5, .T. ) ;
#1255 = AXIS2_PLACEMENT_3D ( 'NONE', #1298, #386, #1305 ) ;
#1256 = EDGE_CURVE ( 'NONE', #1138, #410, #991, .T. ) ;
#1257 = CARTESIAN_POINT ( 'NONE',  ( -1.229837387624880707, 0.000000000000000000, 0.000000000000000000 ) ) ;
#1258 = CARTESIAN_POINT ( 'NONE',  ( -20.63749999999999574, 0.000000000000000000, 0.000000000000000000 ) ) ;
#1259 = CARTESIAN_POINT ( 'NONE',  ( -20.63749999999999574, 0.000000000000000000, 0.000000000000000000 ) ) ;
#1260 = DIRECTION ( 'NONE',  ( 1.000000000000000000, 0.000000000000000000, -0.000000000000000000 ) ) ;
#1261 = EDGE_LOOP ( 'NONE', ( #1014, #792, #977, #432 ) ) ;
#1262 = AXIS2_PLACEMENT_3D ( 'NONE', #680, #385, #92 ) ;
#1263 = AXIS2_PLACEMENT_3D ( 'NONE', #712, #205, #633 ) ;
#1264 = CARTESIAN_POINT ( 'NONE',  ( -20.63749999999999929, 3.061616997868382155E-16, 2.499999999999999112 ) ) ;
#1265 = DIRECTION ( 'NONE',  ( 0.000000000000000000, 0.000000000000000000, -1.000000000000000000 ) ) ;
#1266 = AXIS2_PLACEMENT_3D ( 'NONE', #655, #660, #1070 ) ;
#1267 = DIRECTION ( 'NONE',  ( 0.000000000000000000, 0.000000000000000000, -1.000000000000000000 ) ) ;
#1268 = ORIENTED_EDGE ( 'NONE', *, *, #28, .T. ) ;
#1269 = ORIENTED_EDGE ( 'NONE', *, *, #1043, .F. ) ;
#1270 = AXIS2_PLACEMENT_3D ( 'NONE', #395, #799, #1074 ) ;
#1271 = DIRECTION ( 'NONE',  ( -0.000000000000000000, -0.000000000000000000, -1.000000000000000000 ) ) ;
#1272 = CARTESIAN_POINT ( 'NONE',  ( -20.63749999999999574, 0.000000000000000000, 0.000000000000000000 ) ) ;
#1273 = ADVANCED_FACE ( 'NONE', ( #498 ), #282, .F. ) ;
#1274 = AXIS2_PLACEMENT_3D ( 'NONE', #1031, #401, #1129 ) ;
#1275 = CARTESIAN_POINT ( 'NONE',  ( -12.00000000000000533, 0.000000000000000000, 10.40000000000000036 ) ) ;
#1276 = ORIENTED_EDGE ( 'NONE', *, *, #595, .F. ) ;
#1277 = SHAPE_REPRESENTATION ( 'instrument ball bearing_68_am_AFBMA 12.1.4.1 - 0050-16 - 8,SI,NC,8_68', ( #90 ), #1124 ) ;
#1278 = AXIS2_PLACEMENT_3D ( 'NONE', #825, #726, #995 ) ;
#1279 = ORIENTED_EDGE ( 'NONE', *, *, #710, .F. ) ;
#1280 = EDGE_LOOP ( 'NONE', ( #483, #981 ) ) ;
#1281 = CARTESIAN_POINT ( 'NONE',  ( 0.000000000000000000, 0.000000000000000000, 10.40000000000000036 ) ) ;
#1282 = DIRECTION ( 'NONE',  ( 1.000000000000000000, 0.000000000000000000, 0.000000000000000000 ) ) ;
#1283 = AXIS2_PLACEMENT_3D ( 'NONE', #339, #234, #757 ) ;
#1284 = DIRECTION ( 'NONE',  ( 1.000000000000000000, 0.000000000000000000, 0.000000000000000000 ) ) ;
#1285 = VERTEX_POINT ( 'NONE', #91 ) ;
#1286 = EDGE_LOOP ( 'NONE', ( #732, #767 ) ) ;
#1287 = ORIENTED_EDGE ( 'NONE', *, *, #635, .T. ) ;
#1288 = FACE_OUTER_BOUND ( 'NONE', #1170, .T. ) ;
#1289 = CARTESIAN_POINT ( 'NONE',  ( 2.499999999999998668, 0.000000000000000000, -6.350000000000004974 ) ) ;
#1290 = CARTESIAN_POINT ( 'NONE',  ( -20.63749999999999574, 0.000000000000000000, -6.350000000000004974 ) ) ;
#1291 = AXIS2_PLACEMENT_3D ( 'NONE', #943, #861, #950 ) ;
#1292 = ORIENTED_EDGE ( 'NONE', *, *, #1055, .F. ) ;
#1293 = EDGE_CURVE ( 'NONE', #383, #410, #574, .T. ) ;
#1294 = VERTEX_POINT ( 'NONE', #693 ) ;
#1295 = STYLED_ITEM ( 'NONE', ( #1121 ), #154 ) ;
#1296 = DIRECTION ( 'NONE',  ( 1.000000000000000000, 0.000000000000000000, 0.000000000000000000 ) ) ;
#1297 = DIRECTION ( 'NONE',  ( 1.000000000000000000, 0.000000000000000000, 0.000000000000000000 ) ) ;
#1298 = CARTESIAN_POINT ( 'NONE',  ( 0.000000000000000000, 0.000000000000000000, 0.000000000000000000 ) ) ;
#1299 = ADVANCED_FACE ( 'NONE', ( #891 ), #877, .T. ) ;
#1300 = CARTESIAN_POINT ( 'NONE',  ( -2.200000000000000622, 0.000000000000000000, 0.000000000000000000 ) ) ;
#1301 = PRODUCT_RELATED_PRODUCT_CATEGORY ( 'part', '', ( #887 ) ) ;
#1302 = DIRECTION ( 'NONE',  ( 1.000000000000000000, 0.000000000000000000, 0.000000000000000000 ) ) ;
#1303 = FACE_OUTER_BOUND ( 'NONE', #1216, .T. ) ;
#1304 = AXIS2_PLACEMENT_3D ( 'NONE', #252, #358, #766 ) ;
#1305 = DIRECTION ( 'NONE',  ( -1.000000000000000000, 0.000000000000000000, 0.000000000000000000 ) ) ;
#1306 = ORIENTED_EDGE ( 'NONE', *, *, #293, .F. ) ;
#1307 = DIRECTION ( 'NONE',  ( 1.000000000000000000, 0.000000000000000000, 0.000000000000000000 ) ) ;
#1308 = DIRECTION ( 'NONE',  ( 1.000000000000000000, 0.000000000000000000, 0.000000000000000000 ) ) ;
#1309 = DIRECTION ( 'NONE',  ( 0.000000000000000000, 0.000000000000000000, -1.000000000000000000 ) ) ;
#1310 = ORIENTED_EDGE ( 'NONE', *, *, #748, .F. ) ;
#1311 = NEXT_ASSEMBLY_USAGE_OCCURRENCE ( 'NAUO1', ' ', ' ', #1157, #734, $ ) ;
#1312 = NEXT_ASSEMBLY_USAGE_OCCURRENCE ( 'NAUO2', ' ', ' ', #1157, #1064, $ ) ;
#1313 = NEXT_ASSEMBLY_USAGE_OCCURRENCE ( 'NAUO3', ' ', ' ', #1157, #1064, $ ) ;
ENDSEC;
END-ISO-10303-21;
